<svg xmlns="http://www.w3.org/2000/svg" xmlns:xlink="http://www.w3.org/1999/xlink" width="559" zoomAndPan="magnify" viewBox="0 0 419.25 198.749995" height="264" preserveAspectRatio="xMidYMid meet" version="1.0"><path fill="#6d7856" d="M 33.375 179.59375 C 46.542969 179.59375 60.160156 165.753906 69.089844 156.160156 C 73.554688 151.023438 78.015625 145.886719 82.257812 140.53125 C 86.5 135.402344 90.738281 130.042969 94.980469 124.6875 C 97.882812 120.667969 101.007812 116.652344 103.910156 112.410156 C 106.8125 108.390625 109.933594 104.375 113.28125 100.578125 C 115.292969 98.125 117.300781 96.117188 119.085938 93.660156 C 119.980469 92.769531 119.757812 91.203125 118.640625 90.535156 C 118.417969 90.3125 118.195312 90.3125 117.96875 90.3125 C 117.527344 90.3125 117.078125 90.535156 116.410156 91.203125 L 113.953125 93.882812 C 107.925781 100.804688 102.570312 107.941406 96.992188 115.3125 C 88.285156 126.917969 79.132812 138.300781 69.53125 149.460938 C 61.277344 159.953125 44.3125 176.472656 30.472656 176.472656 C 27.570312 176.472656 25.339844 175.128906 23.777344 172.230469 C 23.550781 171.558594 23.332031 171.117188 23.109375 170.441406 C 22.882812 169.773438 22.4375 169.101562 22.214844 168.433594 C 20.652344 163.078125 19.980469 157.496094 20.652344 151.917969 C 23.550781 118.210938 42.976562 82.71875 67.75 60.179688 C 71.097656 57.273438 74.445312 55.492188 78.015625 54.375 C 81.363281 53.484375 84.042969 52.367188 86.945312 51.25 C 87.390625 51.027344 87.839844 50.578125 88.507812 50.355469 C 88.957031 50.136719 89.398438 49.910156 89.625 49.6875 C 90.515625 49.238281 90.738281 48.347656 90.515625 47.007812 C 90.292969 45.671875 89.625 45 88.507812 45 C 86.5 45 84.710938 45.222656 82.929688 45.890625 C 80.023438 47.007812 77.125 48.570312 74 50.578125 C 71.765625 52.144531 69.53125 53.035156 67.523438 53.484375 C 59.714844 55.9375 52.570312 58.171875 44.3125 58.171875 C 42.304688 58.171875 40.738281 57.722656 39.402344 57.054688 C 38.730469 54.375 40.519531 52.589844 42.078125 50.578125 C 51.011719 37.410156 72.886719 22.457031 88.957031 20.226562 L 89.847656 20.226562 C 90.964844 20.226562 91.855469 20.445312 92.304688 21.117188 C 92.746094 21.785156 92.746094 22.234375 92.304688 22.675781 C 91.632812 23.125 91.1875 23.574219 90.964844 24.015625 C 90.738281 24.464844 90.292969 24.914062 89.625 25.582031 C 89.625 25.582031 89.625 25.804688 89.398438 26.027344 L 89.398438 26.472656 C 89.625 26.695312 90.070312 26.695312 90.292969 26.921875 C 90.515625 27.144531 90.515625 27.144531 90.738281 27.144531 C 93.417969 26.472656 95.203125 24.242188 94.980469 21.785156 C 94.761719 19.109375 93.195312 17.546875 90.738281 17.097656 C 89.625 16.878906 88.730469 16.652344 88.058594 16.652344 C 86.945312 16.652344 85.382812 16.878906 83.820312 17.320312 C 82.035156 17.992188 80.695312 18.4375 79.582031 18.660156 C 63.511719 23.796875 51.011719 33.839844 40.296875 46.5625 C 39.179688 48.121094 38.0625 49.6875 36.949219 51.695312 C 34.492188 56.160156 36.949219 60.625 42.078125 61.519531 C 42.75 61.742188 43.644531 61.742188 44.757812 61.742188 L 48.332031 61.742188 C 50.113281 61.742188 51.902344 61.519531 53.6875 61.070312 C 55.25 60.847656 57.035156 60.402344 58.597656 60.179688 C 59.265625 59.953125 59.714844 59.730469 60.160156 59.730469 C 60.382812 59.730469 60.605469 59.953125 60.828125 60.402344 C 61.496094 61.070312 60.605469 61.519531 59.9375 62.1875 C 37.613281 84.507812 17.75 122.230469 17.082031 154.597656 C 17.082031 165.980469 20.875 179.59375 33.375 179.59375 Z M 33.375 179.59375 " fill-opacity="1" fill-rule="nonzero"/><path fill="#6d7856" d="M 184.035156 151.25 C 185.601562 151.25 186.71875 150.800781 187.609375 150.132812 C 188.949219 149.242188 190.066406 148.125 190.957031 146.785156 C 197.207031 138.96875 201.449219 128.703125 205.242188 119.550781 C 206.582031 116.203125 207.925781 112.855469 209.484375 109.507812 C 210.824219 106.382812 212.164062 103.035156 213.503906 99.6875 C 214.394531 97.675781 215.066406 95.445312 215.734375 93.4375 C 216.402344 92.320312 215.066406 90.757812 213.953125 90.757812 C 213.28125 90.535156 212.613281 90.980469 211.9375 92.097656 C 211.714844 92.769531 211.273438 93.4375 211.046875 94.105469 C 210.824219 94.777344 210.378906 95.667969 210.15625 96.335938 C 208.148438 101.023438 206.136719 105.710938 204.351562 110.398438 C 202.34375 115.085938 200.554688 119.773438 198.546875 124.460938 C 195.199219 131.382812 192.296875 137.632812 188.058594 143.878906 C 187.390625 144.554688 186.941406 145.445312 186.492188 146.335938 C 185.824219 147.453125 185.15625 147.902344 184.035156 147.675781 C 182.921875 147.453125 182.253906 146.5625 182.03125 145.445312 C 181.804688 144.328125 181.585938 143.4375 181.363281 142.320312 C 178.90625 133.390625 178.683594 124.460938 178.90625 115.3125 C 179.128906 97.230469 181.585938 79.597656 185.15625 61.742188 C 185.824219 57.945312 186.71875 54.152344 187.609375 50.355469 C 188.503906 46.789062 189.398438 42.992188 190.066406 39.195312 C 190.289062 38.527344 190.511719 37.632812 190.511719 36.738281 C 190.511719 35.847656 190.511719 34.957031 190.738281 34.0625 C 190.738281 32.722656 190.066406 31.382812 188.949219 29.820312 C 188.503906 29.375 188.058594 29.152344 187.390625 29.152344 C 187.164062 29.152344 186.71875 29.375 186.050781 29.597656 C 180.023438 33.839844 170.421875 57.5 167.964844 65.089844 C 162.609375 81.160156 159.039062 97.457031 155.46875 113.746094 L 152.121094 129.148438 C 151.894531 130.265625 151.675781 131.382812 150.113281 132.050781 C 149.886719 130.714844 149.664062 129.375 149.445312 128.035156 C 149.21875 126.917969 149.21875 125.578125 148.996094 124.460938 C 148.328125 114.863281 149.21875 105.265625 150.335938 95.667969 C 151.894531 82.054688 154.800781 68.4375 158.148438 55.042969 C 160.15625 46.789062 162.167969 38.753906 163.949219 30.042969 C 164.84375 26.472656 165.734375 22.902344 165.734375 18.660156 C 165.734375 17.097656 165.734375 16.207031 164.84375 14.640625 C 164.175781 13.523438 163.28125 13.082031 162.609375 13.082031 C 161.941406 13.082031 161.269531 13.523438 160.601562 14.199219 C 159.488281 15.757812 158.59375 16.878906 157.699219 18.4375 C 142.523438 44.550781 133.59375 82.277344 128.238281 111.964844 C 127.570312 115.757812 126.898438 119.332031 126.230469 122.898438 C 125.558594 126.46875 124.890625 130.042969 123.996094 133.613281 C 123.773438 134.730469 123.550781 135.84375 121.984375 136.519531 C 121.09375 134.503906 120.648438 132.722656 120.425781 130.714844 C 120.203125 128.703125 119.753906 126.695312 119.535156 124.6875 C 118.417969 106.160156 119.753906 87.183594 123.324219 67.765625 C 125.332031 57.273438 128.011719 47.007812 131.359375 36.515625 L 136.046875 21.339844 C 136.722656 19.777344 137.164062 18.886719 136.273438 17.320312 C 136.046875 17.097656 135.605469 16.652344 134.933594 16.429688 C 134.488281 16.429688 134.265625 16.652344 134.265625 17.097656 L 132.925781 19.777344 C 125.113281 41.425781 118.636719 63.300781 116.179688 86.292969 C 115.066406 97.675781 113.949219 109.28125 114.621094 120.667969 C 114.621094 125.128906 115.960938 136.292969 118.636719 140.085938 C 119.753906 141.425781 121.09375 142.097656 122.65625 142.097656 C 124.664062 142.097656 126.003906 141.207031 126.898438 139.417969 C 127.789062 137.410156 128.460938 135.402344 128.90625 132.945312 C 129.578125 129.148438 130.46875 125.578125 131.136719 121.78125 C 131.808594 118.210938 132.476562 114.644531 133.148438 110.847656 C 137.164062 85.402344 145.871094 48.796875 158.371094 25.804688 C 159.039062 24.242188 159.488281 22.457031 161.496094 21.5625 C 161.71875 23.125 161.71875 24.464844 161.269531 25.582031 C 160.828125 26.921875 160.378906 28.261719 160.15625 29.375 C 158.816406 34.957031 157.480469 40.761719 156.140625 46.339844 C 154.574219 51.917969 153.234375 57.722656 151.894531 63.300781 C 147.65625 80.046875 145.199219 97.007812 144.53125 114.195312 C 144.308594 119.105469 144.53125 124.238281 145.199219 129.375 C 145.199219 133.835938 146.765625 138.078125 151.894531 138.078125 C 153.234375 137.851562 154.128906 136.960938 154.800781 135.402344 C 155.246094 133.835938 155.691406 132.496094 156.140625 131.15625 C 156.582031 129.816406 157.03125 128.480469 157.253906 126.917969 C 157.921875 123.347656 158.816406 119.773438 159.488281 116.203125 C 160.15625 112.855469 160.828125 109.28125 161.496094 105.710938 C 166.628906 83.394531 171.761719 59.730469 183.144531 39.867188 C 184.035156 38.304688 184.710938 36.738281 186.273438 35.847656 C 186.492188 36.515625 186.71875 36.738281 186.71875 36.964844 C 186.71875 37.632812 186.492188 38.753906 186.273438 39.867188 C 182.476562 54.824219 179.128906 68.882812 177.121094 84.0625 C 175.109375 97.457031 173.769531 110.398438 174.441406 123.792969 C 174.667969 131.605469 175.332031 140.757812 178.683594 147.902344 C 179.796875 150.132812 181.585938 151.25 184.035156 151.25 Z M 184.035156 151.25 " fill-opacity="1" fill-rule="nonzero"/><path fill="#6d7856" d="M 280.238281 151.25 C 281.800781 151.25 282.917969 150.800781 283.808594 150.132812 C 285.148438 149.242188 286.265625 148.125 287.15625 146.785156 C 293.410156 138.96875 297.648438 128.703125 301.445312 119.550781 C 302.785156 116.203125 304.125 112.855469 305.683594 109.507812 C 307.023438 106.382812 308.363281 103.035156 309.703125 99.6875 C 310.597656 97.675781 311.269531 95.445312 311.9375 93.4375 C 312.605469 92.320312 311.269531 90.757812 310.152344 90.757812 C 309.480469 90.535156 308.8125 90.980469 308.140625 92.097656 C 307.917969 92.769531 307.472656 93.4375 307.25 94.105469 C 307.023438 94.777344 306.582031 95.667969 306.355469 96.335938 C 304.347656 101.023438 302.335938 105.710938 300.554688 110.398438 C 298.546875 115.085938 296.757812 119.773438 294.75 124.460938 C 291.402344 131.382812 288.496094 137.632812 284.257812 143.878906 C 283.589844 144.554688 283.140625 145.445312 282.695312 146.335938 C 282.027344 147.453125 281.359375 147.902344 280.238281 147.675781 C 279.121094 147.453125 278.453125 146.5625 278.230469 145.445312 C 278.007812 144.328125 277.785156 143.4375 277.5625 142.320312 C 275.105469 133.390625 274.882812 124.460938 275.105469 115.3125 C 275.332031 97.230469 277.785156 79.597656 281.359375 61.742188 C 282.027344 57.945312 282.917969 54.152344 283.808594 50.355469 C 284.707031 46.789062 285.597656 42.992188 286.265625 39.195312 C 286.488281 38.527344 286.714844 37.632812 286.714844 36.738281 C 286.714844 35.847656 286.714844 34.957031 286.9375 34.0625 C 286.9375 32.722656 286.265625 31.382812 285.148438 29.820312 C 284.707031 29.375 284.257812 29.152344 283.589844 29.152344 C 283.367188 29.152344 282.917969 29.375 282.25 29.597656 C 276.222656 33.839844 266.621094 57.5 264.167969 65.089844 C 258.8125 81.160156 255.238281 97.457031 251.667969 113.746094 L 248.320312 129.148438 C 248.097656 130.265625 247.875 131.382812 246.3125 132.050781 C 246.089844 130.714844 245.863281 129.375 245.644531 128.035156 C 245.421875 126.917969 245.421875 125.578125 245.195312 124.460938 C 244.527344 114.863281 245.421875 105.265625 246.535156 95.667969 C 248.097656 82.054688 251 68.4375 254.347656 55.042969 C 256.355469 46.789062 258.367188 38.753906 260.152344 30.042969 C 261.042969 26.472656 261.933594 22.902344 261.933594 18.660156 C 261.933594 17.097656 261.933594 16.207031 261.042969 14.640625 C 260.375 13.523438 259.484375 13.082031 258.8125 13.082031 C 258.144531 13.082031 257.472656 13.523438 256.804688 14.199219 C 255.6875 15.757812 254.796875 16.878906 253.898438 18.4375 C 238.726562 44.550781 229.792969 82.277344 224.4375 111.964844 C 223.769531 115.757812 223.097656 119.332031 222.429688 122.898438 C 221.757812 126.46875 221.089844 130.042969 220.199219 133.613281 C 219.972656 134.730469 219.75 135.84375 218.1875 136.519531 C 217.292969 134.503906 216.851562 132.722656 216.625 130.714844 C 216.402344 128.703125 215.953125 126.695312 215.734375 124.6875 C 214.617188 106.160156 215.953125 87.183594 219.527344 67.765625 C 221.535156 57.273438 224.214844 47.007812 227.5625 36.515625 L 232.25 21.339844 C 232.921875 19.777344 233.367188 18.886719 232.472656 17.320312 C 232.25 17.097656 231.804688 16.652344 231.132812 16.429688 C 230.691406 16.429688 230.464844 16.652344 230.464844 17.097656 L 229.125 19.777344 C 221.3125 41.425781 214.839844 63.300781 212.382812 86.292969 C 211.265625 97.675781 210.152344 109.28125 210.824219 120.667969 C 210.824219 125.128906 212.164062 136.292969 214.839844 140.085938 C 215.953125 141.425781 217.292969 142.097656 218.859375 142.097656 C 220.867188 142.097656 222.207031 141.207031 223.097656 139.417969 C 223.988281 137.410156 224.664062 135.402344 225.105469 132.945312 C 225.777344 129.148438 226.667969 125.578125 227.335938 121.78125 C 228.011719 118.210938 228.675781 114.644531 229.351562 110.847656 C 233.367188 85.402344 242.074219 48.796875 254.570312 25.804688 C 255.238281 24.242188 255.6875 22.457031 257.695312 21.5625 C 257.917969 23.125 257.917969 24.464844 257.472656 25.582031 C 257.027344 26.921875 256.578125 28.261719 256.355469 29.375 C 255.015625 34.957031 253.679688 40.761719 252.339844 46.339844 C 250.777344 51.917969 249.4375 57.722656 248.097656 63.300781 C 243.855469 80.046875 241.402344 97.007812 240.734375 114.195312 C 240.507812 119.105469 240.734375 124.238281 241.402344 129.375 C 241.402344 133.835938 242.964844 138.078125 248.097656 138.078125 C 249.4375 137.851562 250.328125 136.960938 251 135.402344 C 251.449219 133.835938 251.890625 132.496094 252.339844 131.15625 C 252.785156 129.816406 253.230469 128.480469 253.457031 126.917969 C 254.125 123.347656 255.015625 119.773438 255.6875 116.203125 C 256.355469 112.855469 257.027344 109.28125 257.695312 105.710938 C 262.832031 83.394531 267.964844 59.730469 279.347656 39.867188 C 280.238281 38.304688 280.910156 36.738281 282.472656 35.847656 C 282.695312 36.515625 282.917969 36.738281 282.917969 36.964844 C 282.917969 37.632812 282.695312 38.753906 282.472656 39.867188 C 278.679688 54.824219 275.332031 68.882812 273.324219 84.0625 C 271.3125 97.457031 269.972656 110.398438 270.644531 123.792969 C 270.867188 131.605469 271.535156 140.757812 274.882812 147.902344 C 276 150.132812 277.785156 151.25 280.238281 151.25 Z M 280.238281 151.25 " fill-opacity="1" fill-rule="nonzero"/><path fill="#6d7856" d="M 362.382812 180.933594 C 363.050781 180.933594 363.722656 180.710938 364.164062 180.484375 C 359.253906 171.78125 356.578125 153.480469 356.578125 143.4375 C 355.90625 128.035156 356.355469 112.855469 359.035156 97.675781 C 359.703125 94.328125 359.476562 94.550781 362.824219 94.550781 C 366.398438 94.777344 369.96875 94.777344 373.765625 95 C 377.335938 95.21875 380.910156 95.445312 384.699219 95.667969 C 386.265625 95.667969 388.046875 95.667969 389.613281 95.667969 C 391.175781 95.890625 392.960938 95.890625 394.523438 95.890625 C 397.871094 95.890625 400.769531 95.667969 404.117188 95 C 404.789062 94.777344 405.683594 94.328125 406.574219 94.105469 C 407.246094 93.882812 407.472656 93.4375 407.472656 92.769531 C 407.472656 92.320312 407.472656 91.871094 407.246094 91.203125 C 407.023438 90.535156 406.574219 90.3125 405.90625 90.3125 L 405.234375 90.3125 C 400.996094 91.871094 396.53125 92.097656 392.066406 92.097656 C 391.398438 92.097656 390.503906 92.097656 389.613281 92.097656 C 388.71875 92.097656 387.828125 92.097656 386.929688 91.871094 C 383.140625 91.652344 379.570312 91.652344 375.773438 91.429688 C 371.976562 91.203125 368.183594 91.203125 364.390625 90.980469 C 363.941406 90.757812 363.273438 90.757812 362.382812 90.757812 C 361.042969 90.535156 360.59375 89.863281 360.816406 88.523438 L 361.484375 83.835938 C 365.058594 68.664062 368.851562 53.925781 373.316406 38.753906 C 373.539062 37.632812 373.988281 36.515625 374.207031 35.398438 C 374.433594 34.285156 374.65625 33.167969 374.878906 32.050781 C 375.105469 30.492188 374.878906 29.152344 373.988281 28.035156 C 373.765625 27.363281 373.316406 27.144531 372.199219 27.144531 C 371.757812 27.144531 371.53125 27.144531 371.308594 27.363281 L 369.078125 29.375 C 357.246094 46.113281 346.3125 68.664062 339.835938 87.855469 C 338.71875 90.757812 336.933594 92.320312 334.03125 92.769531 C 324.210938 95.21875 315.726562 98.792969 309.257812 106.828125 C 307.691406 108.390625 306.800781 109.957031 306.800781 112.410156 C 306.132812 116.203125 309.257812 119.105469 312.828125 119.105469 C 313.496094 119.105469 314.167969 119.105469 314.613281 118.882812 C 314.835938 118.882812 315.0625 118.660156 315.0625 117.992188 C 315.0625 117.765625 314.835938 117.320312 314.613281 117.09375 L 312.15625 116.425781 C 309.699219 115.976562 309.03125 114.644531 309.925781 112.410156 C 313.496094 104.375 326.21875 98.570312 334.480469 96.785156 C 334.703125 96.785156 335.148438 97.007812 336.042969 97.230469 L 334.703125 101.917969 L 322.648438 138.75 C 321.980469 140.980469 321.308594 143.214844 320.640625 145.445312 C 319.972656 147.675781 319.074219 149.910156 318.410156 152.140625 C 318.183594 152.808594 317.960938 153.703125 317.734375 154.371094 C 317.515625 155.039062 316.84375 155.710938 315.953125 155.9375 C 315.726562 153.925781 316.175781 151.917969 317.292969 149.460938 C 317.515625 148.792969 317.292969 148.34375 316.621094 148.125 C 316.402344 147.902344 315.953125 147.675781 315.503906 147.675781 C 314.613281 147.675781 313.945312 148.125 313.71875 149.242188 C 312.605469 152.589844 311.9375 155.9375 312.15625 158.835938 C 312.378906 161.292969 313.496094 161.960938 315.503906 162.632812 C 317.066406 162.632812 318.410156 161.738281 319.074219 160.175781 C 320.640625 157.277344 322.203125 153.703125 323.320312 149.460938 C 325.777344 141.207031 328.453125 133.164062 331.132812 124.910156 C 333.8125 116.875 336.488281 108.839844 338.941406 100.578125 L 340.28125 96.785156 C 340.730469 95.667969 341.398438 95.21875 342.289062 95 C 346.53125 94.328125 349.433594 94.105469 353.671875 94.105469 C 354.789062 94.328125 355.238281 94.777344 355.238281 95.890625 C 355.015625 97.457031 354.789062 98.570312 354.789062 100.132812 C 354.570312 102.140625 354.121094 104.152344 353.898438 105.933594 C 353.671875 107.941406 353.449219 109.957031 353.230469 111.964844 C 352.332031 125.355469 351.441406 138.078125 353.007812 151.25 C 353.898438 159.058594 354.570312 166.203125 357.019531 173.347656 C 357.695312 175.355469 358.363281 177.363281 359.476562 179.152344 C 360.148438 180.265625 361.265625 180.933594 362.382812 180.933594 Z M 344.746094 90.757812 C 343.40625 90.757812 342.738281 90.3125 342.964844 89.421875 C 343.183594 88.75 343.628906 87.183594 344.296875 85.175781 C 350.324219 69.554688 357.46875 54.597656 365.730469 40.3125 C 366.398438 39.195312 367.070312 38.304688 367.738281 37.1875 C 368.183594 36.296875 369.078125 35.398438 370.191406 34.730469 C 370.417969 35.625 370.640625 36.296875 370.417969 36.964844 C 370.191406 37.632812 369.96875 38.304688 369.746094 38.972656 C 365.058594 55.042969 360.816406 70.445312 357.246094 86.515625 C 357.019531 86.742188 357.019531 86.964844 357.019531 87.183594 C 357.019531 87.410156 357.019531 87.855469 356.800781 88.082031 C 356.578125 89.421875 355.90625 90.089844 354.347656 90.089844 C 353.230469 90.089844 352.332031 90.089844 351.441406 90.089844 C 350.324219 90.089844 349.433594 90.089844 348.542969 90.3125 C 346.753906 90.535156 345.636719 90.757812 344.746094 90.757812 Z M 344.746094 90.757812 " fill-opacity="1" fill-rule="nonzero"/><path fill="#6d7856" d="M 90.304688 185.289062 C 90.902344 185.289062 91.414062 185.226562 91.839844 185.085938 C 92.273438 184.949219 92.628906 184.757812 92.902344 184.507812 C 93.171875 184.257812 93.375 183.964844 93.5 183.628906 C 93.636719 183.292969 93.707031 182.917969 93.707031 182.507812 C 93.707031 181.714844 93.417969 181.082031 92.847656 180.621094 C 92.285156 180.148438 91.4375 179.910156 90.304688 179.910156 L 86.964844 179.910156 L 86.964844 185.289062 Z M 86.964844 173.152344 L 86.964844 178.4375 L 89.726562 178.4375 C 90.3125 178.4375 90.820312 178.375 91.257812 178.25 C 91.691406 178.113281 92.046875 177.933594 92.324219 177.707031 C 92.609375 177.472656 92.820312 177.195312 92.957031 176.867188 C 93.09375 176.53125 93.164062 176.171875 93.164062 175.785156 C 93.164062 174.878906 92.886719 174.210938 92.34375 173.785156 C 91.804688 173.367188 90.960938 173.152344 89.800781 173.152344 Z M 89.800781 171.507812 C 90.746094 171.507812 91.5625 171.601562 92.25 171.789062 C 92.945312 171.972656 93.507812 172.246094 93.949219 172.589844 C 94.398438 172.941406 94.71875 173.367188 94.917969 173.859375 C 95.128906 174.359375 95.238281 174.921875 95.238281 175.542969 C 95.238281 175.929688 95.171875 176.296875 95.050781 176.644531 C 94.9375 176.992188 94.761719 177.316406 94.527344 177.613281 C 94.289062 177.914062 93.992188 178.1875 93.632812 178.4375 C 93.265625 178.675781 92.835938 178.867188 92.34375 179.015625 C 93.484375 179.230469 94.339844 179.632812 94.902344 180.230469 C 95.46875 180.816406 95.761719 181.59375 95.761719 182.5625 C 95.761719 183.210938 95.636719 183.808594 95.40625 184.355469 C 95.167969 184.894531 94.8125 185.355469 94.339844 185.738281 C 93.878906 186.125 93.3125 186.425781 92.640625 186.636719 C 91.96875 186.851562 91.203125 186.953125 90.34375 186.953125 L 84.890625 186.953125 L 84.890625 171.507812 Z M 89.800781 171.507812 " fill-opacity="1" fill-rule="nonzero"/><path fill="#6d7856" d="M 107.78125 176.046875 L 101.695312 190.183594 C 101.621094 190.320312 101.53125 190.429688 101.433594 190.519531 C 101.34375 190.605469 101.199219 190.652344 101.003906 190.652344 L 99.582031 190.652344 L 101.5625 186.316406 L 97.0625 176.046875 L 98.722656 176.046875 C 98.882812 176.046875 99.015625 176.09375 99.117188 176.175781 C 99.214844 176.25 99.285156 176.339844 99.320312 176.4375 L 102.234375 183.3125 C 102.347656 183.609375 102.445312 183.925781 102.535156 184.261719 C 102.632812 183.925781 102.738281 183.605469 102.851562 183.292969 L 105.691406 176.4375 C 105.726562 176.324219 105.792969 176.234375 105.894531 176.15625 C 106.007812 176.082031 106.125 176.046875 106.25 176.046875 Z M 107.78125 176.046875 " fill-opacity="1" fill-rule="nonzero"/><path fill="#6d7856" d="M 124.964844 185.253906 L 124.945312 186.953125 L 115.4375 186.953125 L 115.4375 171.507812 L 124.945312 171.507812 L 124.945312 173.207031 L 117.53125 173.207031 L 117.53125 178.34375 L 123.523438 178.34375 L 123.523438 179.988281 L 117.53125 179.988281 L 117.53125 185.253906 Z M 124.964844 185.253906 " fill-opacity="1" fill-rule="nonzero"/><path fill="#6d7856" d="M 127.414062 186.953125 L 127.414062 176.046875 L 128.570312 176.046875 C 128.839844 176.046875 129.007812 176.175781 129.074219 176.4375 L 129.222656 177.558594 C 129.621094 177.0625 130.070312 176.65625 130.570312 176.34375 C 131.078125 176.023438 131.660156 175.859375 132.324219 175.859375 C 133.058594 175.859375 133.652344 176.0625 134.097656 176.476562 C 134.554688 176.886719 134.886719 177.441406 135.089844 178.136719 C 135.246094 177.742188 135.453125 177.398438 135.707031 177.109375 C 135.953125 176.824219 136.226562 176.585938 136.527344 176.402344 C 136.835938 176.214844 137.167969 176.078125 137.515625 175.988281 C 137.863281 175.90625 138.21875 175.859375 138.582031 175.859375 C 139.152344 175.859375 139.664062 175.953125 140.113281 176.140625 C 140.5625 176.324219 140.9375 176.597656 141.253906 176.941406 C 141.574219 177.292969 141.816406 177.726562 141.980469 178.25 C 142.140625 178.761719 142.222656 179.347656 142.222656 180.003906 L 142.222656 186.953125 L 140.300781 186.953125 L 140.300781 180.003906 C 140.300781 179.144531 140.113281 178.5 139.738281 178.0625 C 139.367188 177.613281 138.824219 177.390625 138.113281 177.390625 C 137.800781 177.390625 137.503906 177.445312 137.21875 177.558594 C 136.929688 177.671875 136.679688 177.839844 136.472656 178.0625 C 136.257812 178.277344 136.089844 178.542969 135.964844 178.867188 C 135.839844 179.191406 135.78125 179.570312 135.78125 180.003906 L 135.78125 186.953125 L 133.835938 186.953125 L 133.835938 180.003906 C 133.835938 179.121094 133.660156 178.46875 133.316406 178.042969 C 132.964844 177.609375 132.445312 177.390625 131.765625 177.390625 C 131.289062 177.390625 130.855469 177.519531 130.457031 177.78125 C 130.054688 178.035156 129.691406 178.375 129.355469 178.808594 L 129.355469 186.953125 Z M 127.414062 186.953125 " fill-opacity="1" fill-rule="nonzero"/><path fill="#6d7856" d="M 145.132812 186.953125 L 145.132812 176.046875 L 146.289062 176.046875 C 146.558594 176.046875 146.730469 176.175781 146.792969 176.4375 L 146.941406 177.558594 C 147.339844 177.0625 147.789062 176.65625 148.289062 176.34375 C 148.796875 176.023438 149.378906 175.859375 150.042969 175.859375 C 150.777344 175.859375 151.371094 176.0625 151.816406 176.476562 C 152.277344 176.886719 152.605469 177.441406 152.808594 178.136719 C 152.964844 177.742188 153.171875 177.398438 153.425781 177.109375 C 153.671875 176.824219 153.945312 176.585938 154.246094 176.402344 C 154.554688 176.214844 154.886719 176.078125 155.234375 175.988281 C 155.582031 175.90625 155.9375 175.859375 156.300781 175.859375 C 156.871094 175.859375 157.382812 175.953125 157.832031 176.140625 C 158.28125 176.324219 158.65625 176.597656 158.972656 176.941406 C 159.292969 177.292969 159.535156 177.726562 159.699219 178.25 C 159.859375 178.761719 159.941406 179.347656 159.941406 180.003906 L 159.941406 186.953125 L 158.019531 186.953125 L 158.019531 180.003906 C 158.019531 179.144531 157.832031 178.5 157.457031 178.0625 C 157.085938 177.613281 156.542969 177.390625 155.832031 177.390625 C 155.519531 177.390625 155.222656 177.445312 154.9375 177.558594 C 154.648438 177.671875 154.398438 177.839844 154.191406 178.0625 C 153.976562 178.277344 153.808594 178.542969 153.683594 178.867188 C 153.558594 179.191406 153.5 179.570312 153.5 180.003906 L 153.5 186.953125 L 151.554688 186.953125 L 151.554688 180.003906 C 151.554688 179.121094 151.378906 178.46875 151.035156 178.042969 C 150.683594 177.609375 150.164062 177.390625 149.484375 177.390625 C 149.007812 177.390625 148.574219 177.519531 148.175781 177.78125 C 147.773438 178.035156 147.410156 178.375 147.074219 178.808594 L 147.074219 186.953125 Z M 145.132812 186.953125 " fill-opacity="1" fill-rule="nonzero"/><path fill="#6d7856" d="M 168.769531 182.039062 C 167.882812 182.070312 167.132812 182.132812 166.511719 182.246094 C 165.886719 182.359375 165.375 182.507812 164.980469 182.695312 C 164.59375 182.871094 164.3125 183.082031 164.140625 183.328125 C 163.960938 183.566406 163.878906 183.832031 163.878906 184.132812 C 163.878906 184.421875 163.917969 184.667969 164.007812 184.878906 C 164.105469 185.09375 164.238281 185.265625 164.402344 185.402344 C 164.558594 185.527344 164.746094 185.621094 164.960938 185.683594 C 165.183594 185.746094 165.429688 185.777344 165.6875 185.777344 C 166.027344 185.777344 166.328125 185.746094 166.605469 185.683594 C 166.890625 185.609375 167.152344 185.511719 167.390625 185.382812 C 167.636719 185.25 167.875 185.09375 168.097656 184.917969 C 168.332031 184.746094 168.554688 184.539062 168.769531 184.300781 Z M 162.570312 177.578125 C 163.175781 176.992188 163.832031 176.558594 164.53125 176.269531 C 165.226562 175.984375 165.996094 175.839844 166.847656 175.839844 C 167.453125 175.839844 167.996094 175.941406 168.472656 176.140625 C 168.945312 176.339844 169.339844 176.621094 169.667969 176.980469 C 169.988281 177.34375 170.230469 177.777344 170.394531 178.285156 C 170.570312 178.800781 170.65625 179.359375 170.65625 179.96875 L 170.65625 186.953125 L 169.796875 186.953125 C 169.613281 186.953125 169.464844 186.925781 169.367188 186.859375 C 169.265625 186.796875 169.1875 186.683594 169.125 186.503906 L 168.921875 185.457031 C 168.632812 185.734375 168.351562 185.976562 168.078125 186.1875 C 167.804688 186.386719 167.511719 186.554688 167.203125 186.691406 C 166.902344 186.832031 166.578125 186.933594 166.230469 187.007812 C 165.894531 187.082031 165.519531 187.121094 165.109375 187.121094 C 164.683594 187.121094 164.289062 187.066406 163.914062 186.953125 C 163.542969 186.832031 163.210938 186.648438 162.925781 186.410156 C 162.648438 186.175781 162.429688 185.878906 162.273438 185.515625 C 162.121094 185.15625 162.046875 184.726562 162.046875 184.226562 C 162.046875 183.792969 162.164062 183.375 162.402344 182.972656 C 162.636719 182.578125 163.019531 182.226562 163.542969 181.929688 C 164.074219 181.621094 164.765625 181.363281 165.613281 181.164062 C 166.472656 180.96875 167.523438 180.855469 168.769531 180.828125 L 168.769531 179.96875 C 168.769531 179.121094 168.585938 178.484375 168.210938 178.042969 C 167.847656 177.609375 167.320312 177.390625 166.625 177.390625 C 166.148438 177.390625 165.75 177.457031 165.429688 177.578125 C 165.101562 177.6875 164.820312 177.820312 164.585938 177.96875 C 164.363281 178.117188 164.164062 178.257812 163.988281 178.378906 C 163.828125 178.492188 163.660156 178.546875 163.484375 178.546875 C 163.359375 178.546875 163.246094 178.519531 163.148438 178.453125 C 163.0625 178.378906 162.984375 178.296875 162.925781 178.195312 Z M 162.570312 177.578125 " fill-opacity="1" fill-rule="nonzero"/><path fill="#6d7856" d="M 189.066406 185.253906 L 189.046875 186.953125 L 179.539062 186.953125 L 179.539062 171.507812 L 189.046875 171.507812 L 189.046875 173.207031 L 181.632812 173.207031 L 181.632812 178.34375 L 187.625 178.34375 L 187.625 179.988281 L 181.632812 179.988281 L 181.632812 185.253906 Z M 189.066406 185.253906 " fill-opacity="1" fill-rule="nonzero"/><path fill="#6d7856" d="M 191.589844 171.078125 L 193.511719 171.078125 L 193.511719 186.953125 L 191.589844 186.953125 Z M 191.589844 171.078125 " fill-opacity="1" fill-rule="nonzero"/><path fill="#6d7856" d="M 198.632812 176.046875 L 198.632812 186.953125 L 196.710938 186.953125 L 196.710938 176.046875 Z M 199.042969 172.609375 C 199.042969 172.796875 199.007812 172.972656 198.933594 173.132812 C 198.859375 173.296875 198.75 173.441406 198.613281 173.5625 C 198.488281 173.6875 198.339844 173.785156 198.167969 173.859375 C 198.003906 173.933594 197.832031 173.972656 197.644531 173.972656 C 197.457031 173.972656 197.28125 173.933594 197.121094 173.859375 C 196.957031 173.785156 196.8125 173.6875 196.691406 173.5625 C 196.578125 173.441406 196.484375 173.296875 196.410156 173.132812 C 196.335938 172.972656 196.300781 172.796875 196.300781 172.609375 C 196.300781 172.421875 196.335938 172.25 196.410156 172.085938 C 196.484375 171.914062 196.578125 171.765625 196.691406 171.636719 C 196.8125 171.515625 196.957031 171.414062 197.121094 171.339844 C 197.28125 171.265625 197.457031 171.226562 197.644531 171.226562 C 197.832031 171.226562 198.003906 171.265625 198.167969 171.339844 C 198.339844 171.414062 198.488281 171.515625 198.613281 171.636719 C 198.75 171.765625 198.859375 171.914062 198.933594 172.085938 C 199.007812 172.25 199.042969 172.421875 199.042969 172.609375 Z M 199.042969 172.609375 " fill-opacity="1" fill-rule="nonzero"/><path fill="#6d7856" d="M 208.136719 177.839844 C 208.046875 178.003906 207.914062 178.082031 207.726562 178.082031 C 207.621094 178.082031 207.507812 178.042969 207.371094 177.96875 C 207.230469 177.886719 207.0625 177.792969 206.867188 177.6875 C 206.664062 177.589844 206.425781 177.503906 206.15625 177.429688 C 205.882812 177.34375 205.558594 177.296875 205.183594 177.296875 C 204.859375 177.296875 204.570312 177.34375 204.308594 177.429688 C 204.054688 177.503906 203.839844 177.613281 203.652344 177.765625 C 203.46875 177.902344 203.324219 178.070312 203.222656 178.269531 C 203.136719 178.453125 203.09375 178.660156 203.09375 178.882812 C 203.09375 179.160156 203.171875 179.390625 203.335938 179.574219 C 203.496094 179.761719 203.710938 179.925781 203.972656 180.0625 C 204.234375 180.199219 204.53125 180.324219 204.867188 180.433594 C 205.214844 180.539062 205.5625 180.648438 205.914062 180.769531 C 206.273438 180.882812 206.625 181.011719 206.960938 181.164062 C 207.296875 181.304688 207.59375 181.480469 207.855469 181.703125 C 208.128906 181.917969 208.347656 182.179688 208.511719 182.488281 C 208.667969 182.800781 208.753906 183.175781 208.753906 183.609375 C 208.753906 184.125 208.660156 184.589844 208.472656 185.011719 C 208.296875 185.433594 208.027344 185.804688 207.667969 186.113281 C 207.320312 186.425781 206.890625 186.671875 206.378906 186.859375 C 205.867188 187.03125 205.285156 187.121094 204.625 187.121094 C 203.863281 187.121094 203.171875 186.996094 202.550781 186.746094 C 201.925781 186.5 201.402344 186.183594 200.984375 185.792969 L 201.429688 185.066406 C 201.492188 184.980469 201.5625 184.914062 201.636719 184.859375 C 201.710938 184.800781 201.808594 184.765625 201.9375 184.765625 C 202.058594 184.765625 202.1875 184.824219 202.328125 184.9375 C 202.476562 185.039062 202.648438 185.148438 202.851562 185.273438 C 203.0625 185.382812 203.316406 185.492188 203.617188 185.589844 C 203.914062 185.691406 204.28125 185.738281 204.71875 185.738281 C 205.09375 185.738281 205.414062 185.695312 205.691406 185.609375 C 205.972656 185.511719 206.210938 185.378906 206.398438 185.214844 C 206.585938 185.042969 206.722656 184.851562 206.808594 184.636719 C 206.894531 184.425781 206.941406 184.199219 206.941406 183.945312 C 206.941406 183.648438 206.855469 183.398438 206.699219 183.199219 C 206.535156 183.003906 206.324219 182.835938 206.0625 182.695312 C 205.800781 182.558594 205.492188 182.441406 205.148438 182.339844 C 204.8125 182.226562 204.460938 182.117188 204.101562 182.003906 C 203.753906 181.882812 203.402344 181.75 203.054688 181.609375 C 202.71875 181.460938 202.410156 181.273438 202.140625 181.050781 C 201.878906 180.828125 201.664062 180.554688 201.507812 180.230469 C 201.34375 179.894531 201.261719 179.496094 201.261719 179.035156 C 201.261719 178.613281 201.347656 178.210938 201.523438 177.839844 C 201.699219 177.457031 201.945312 177.121094 202.273438 176.832031 C 202.609375 176.53125 203.007812 176.296875 203.484375 176.121094 C 203.972656 175.949219 204.523438 175.859375 205.148438 175.859375 C 205.867188 175.859375 206.511719 175.980469 207.070312 176.214844 C 207.640625 176.4375 208.140625 176.746094 208.566406 177.128906 Z M 208.136719 177.839844 " fill-opacity="1" fill-rule="nonzero"/><path fill="#6d7856" d="M 217.015625 182.039062 C 216.128906 182.070312 215.378906 182.132812 214.757812 182.246094 C 214.128906 182.359375 213.621094 182.507812 213.226562 182.695312 C 212.835938 182.871094 212.558594 183.082031 212.382812 183.328125 C 212.207031 183.566406 212.121094 183.832031 212.121094 184.132812 C 212.121094 184.421875 212.164062 184.667969 212.253906 184.878906 C 212.351562 185.09375 212.480469 185.265625 212.644531 185.402344 C 212.804688 185.527344 212.992188 185.621094 213.207031 185.683594 C 213.429688 185.746094 213.671875 185.777344 213.933594 185.777344 C 214.269531 185.777344 214.574219 185.746094 214.851562 185.683594 C 215.132812 185.609375 215.394531 185.511719 215.632812 185.382812 C 215.882812 185.25 216.121094 185.09375 216.34375 184.917969 C 216.578125 184.746094 216.800781 184.539062 217.015625 184.300781 Z M 210.816406 177.578125 C 211.421875 176.992188 212.078125 176.558594 212.777344 176.269531 C 213.472656 175.984375 214.242188 175.839844 215.09375 175.839844 C 215.699219 175.839844 216.242188 175.941406 216.71875 176.140625 C 217.1875 176.339844 217.585938 176.621094 217.914062 176.980469 C 218.234375 177.34375 218.476562 177.777344 218.640625 178.285156 C 218.8125 178.800781 218.902344 179.359375 218.902344 179.96875 L 218.902344 186.953125 L 218.042969 186.953125 C 217.855469 186.953125 217.710938 186.925781 217.613281 186.859375 C 217.511719 186.796875 217.429688 186.683594 217.371094 186.503906 L 217.164062 185.457031 C 216.875 185.734375 216.597656 185.976562 216.324219 186.1875 C 216.050781 186.386719 215.753906 186.554688 215.449219 186.691406 C 215.148438 186.832031 214.820312 186.933594 214.476562 187.007812 C 214.140625 187.082031 213.765625 187.121094 213.355469 187.121094 C 212.929688 187.121094 212.535156 187.066406 212.160156 186.953125 C 211.785156 186.832031 211.457031 186.648438 211.171875 186.410156 C 210.894531 186.175781 210.675781 185.878906 210.515625 185.515625 C 210.367188 185.15625 210.292969 184.726562 210.292969 184.226562 C 210.292969 183.792969 210.410156 183.375 210.648438 182.972656 C 210.882812 182.578125 211.265625 182.226562 211.785156 181.929688 C 212.320312 181.621094 213.011719 181.363281 213.859375 181.164062 C 214.71875 180.96875 215.769531 180.855469 217.015625 180.828125 L 217.015625 179.96875 C 217.015625 179.121094 216.828125 178.484375 216.457031 178.042969 C 216.089844 177.609375 215.5625 177.390625 214.867188 177.390625 C 214.390625 177.390625 213.996094 177.457031 213.671875 177.578125 C 213.347656 177.6875 213.066406 177.820312 212.832031 177.96875 C 212.609375 178.117188 212.40625 178.257812 212.234375 178.378906 C 212.070312 178.492188 211.902344 178.546875 211.730469 178.546875 C 211.605469 178.546875 211.492188 178.519531 211.394531 178.453125 C 211.304688 178.378906 211.230469 178.296875 211.171875 178.195312 Z M 210.816406 177.578125 " fill-opacity="1" fill-rule="nonzero"/><path fill="#6d7856" d="M 223.746094 184.320312 C 224.089844 184.796875 224.472656 185.132812 224.882812 185.328125 C 225.304688 185.515625 225.773438 185.609375 226.285156 185.609375 C 227.304688 185.609375 228.085938 185.25 228.636719 184.523438 C 229.183594 183.804688 229.460938 182.726562 229.460938 181.292969 C 229.460938 179.949219 229.21875 178.96875 228.730469 178.34375 C 228.246094 177.707031 227.554688 177.390625 226.660156 177.390625 C 226.03125 177.390625 225.488281 177.535156 225.015625 177.820312 C 224.554688 178.109375 224.128906 178.511719 223.746094 179.035156 Z M 223.746094 177.613281 C 224.203125 177.082031 224.722656 176.65625 225.296875 176.34375 C 225.863281 176.023438 226.53125 175.859375 227.292969 175.859375 C 227.929688 175.859375 228.5 175.984375 229.011719 176.234375 C 229.535156 176.484375 229.972656 176.839844 230.339844 177.296875 C 230.699219 177.757812 230.972656 178.320312 231.160156 178.976562 C 231.347656 179.640625 231.441406 180.378906 231.441406 181.199219 C 231.441406 182.085938 231.332031 182.894531 231.121094 183.628906 C 230.90625 184.351562 230.597656 184.96875 230.1875 185.476562 C 229.777344 185.992188 229.277344 186.386719 228.695312 186.671875 C 228.121094 186.957031 227.472656 187.101562 226.753906 187.101562 C 226.027344 187.101562 225.417969 186.972656 224.921875 186.710938 C 224.4375 186.4375 224.007812 186.050781 223.632812 185.550781 L 223.539062 186.542969 C 223.488281 186.816406 223.324219 186.953125 223.054688 186.953125 L 221.804688 186.953125 L 221.804688 171.078125 L 223.746094 171.078125 Z M 223.746094 177.613281 " fill-opacity="1" fill-rule="nonzero"/><path fill="#6d7856" d="M 241.1875 180.304688 C 241.1875 179.855469 241.117188 179.453125 240.984375 179.089844 C 240.855469 178.714844 240.675781 178.398438 240.441406 178.136719 C 240.203125 177.867188 239.910156 177.652344 239.5625 177.503906 C 239.214844 177.351562 238.820312 177.277344 238.386719 177.277344 C 237.460938 177.277344 236.734375 177.550781 236.203125 178.082031 C 235.664062 178.617188 235.332031 179.359375 235.210938 180.304688 Z M 242.738281 185.421875 C 242.5 185.710938 242.214844 185.957031 241.878906 186.167969 C 241.550781 186.382812 241.199219 186.554688 240.816406 186.691406 C 240.441406 186.832031 240.046875 186.929688 239.636719 186.988281 C 239.238281 187.066406 238.84375 187.101562 238.460938 187.101562 C 237.699219 187.101562 237.003906 186.976562 236.371094 186.726562 C 235.734375 186.46875 235.179688 186.09375 234.707031 185.609375 C 234.246094 185.113281 233.886719 184.5 233.625 183.777344 C 233.371094 183.058594 233.25 182.222656 233.25 181.273438 C 233.25 180.519531 233.363281 179.808594 233.585938 179.144531 C 233.820312 178.488281 234.15625 177.914062 234.59375 177.429688 C 235.042969 176.941406 235.574219 176.5625 236.203125 176.289062 C 236.835938 176.003906 237.550781 175.859375 238.347656 175.859375 C 238.992188 175.859375 239.601562 175.972656 240.160156 176.195312 C 240.722656 176.410156 241.199219 176.726562 241.597656 177.148438 C 242.011719 177.558594 242.328125 178.070312 242.550781 178.679688 C 242.785156 179.277344 242.90625 179.96875 242.90625 180.753906 C 242.90625 181.050781 242.867188 181.25 242.792969 181.351562 C 242.730469 181.453125 242.613281 181.5 242.4375 181.5 L 235.136719 181.5 C 235.160156 182.183594 235.253906 182.78125 235.417969 183.292969 C 235.589844 183.804688 235.828125 184.234375 236.125 184.582031 C 236.433594 184.917969 236.800781 185.171875 237.210938 185.347656 C 237.628906 185.511719 238.097656 185.589844 238.609375 185.589844 C 239.097656 185.589844 239.511719 185.535156 239.863281 185.421875 C 240.207031 185.308594 240.507812 185.191406 240.757812 185.066406 C 241.007812 184.945312 241.210938 184.824219 241.375 184.710938 C 241.546875 184.597656 241.695312 184.542969 241.824219 184.542969 C 241.980469 184.542969 242.109375 184.609375 242.195312 184.730469 Z M 242.738281 185.421875 " fill-opacity="1" fill-rule="nonzero"/><path fill="#6d7856" d="M 248.601562 187.121094 C 247.742188 187.121094 247.078125 186.886719 246.605469 186.410156 C 246.140625 185.925781 245.914062 185.230469 245.914062 184.320312 L 245.914062 177.632812 L 244.605469 177.632812 C 244.496094 177.632812 244.390625 177.605469 244.308594 177.539062 C 244.234375 177.480469 244.195312 177.371094 244.195312 177.222656 L 244.195312 176.457031 L 245.988281 176.234375 L 246.417969 172.851562 C 246.441406 172.753906 246.492188 172.675781 246.566406 172.609375 C 246.640625 172.535156 246.738281 172.496094 246.867188 172.496094 L 247.835938 172.496094 L 247.835938 176.25 L 250.992188 176.25 L 250.992188 177.632812 L 247.835938 177.632812 L 247.835938 184.1875 C 247.835938 184.652344 247.949219 184.992188 248.171875 185.214844 C 248.398438 185.441406 248.683594 185.550781 249.03125 185.550781 C 249.230469 185.550781 249.40625 185.527344 249.554688 185.476562 C 249.703125 185.417969 249.828125 185.355469 249.929688 185.289062 C 250.042969 185.230469 250.132812 185.171875 250.210938 185.121094 C 250.285156 185.0625 250.347656 185.027344 250.414062 185.027344 C 250.511719 185.027344 250.601562 185.09375 250.675781 185.214844 L 251.238281 186.132812 C 250.910156 186.445312 250.511719 186.6875 250.042969 186.859375 C 249.578125 187.03125 249.097656 187.121094 248.601562 187.121094 Z M 248.601562 187.121094 " fill-opacity="1" fill-rule="nonzero"/><path fill="#6d7856" d="M 254.90625 177.484375 C 255.363281 177 255.878906 176.605469 256.4375 176.308594 C 257.007812 176.007812 257.671875 175.859375 258.417969 175.859375 C 259.015625 175.859375 259.539062 175.960938 259.988281 176.15625 C 260.445312 176.359375 260.828125 176.636719 261.125 177 C 261.433594 177.363281 261.667969 177.796875 261.816406 178.304688 C 261.976562 178.820312 262.058594 179.382812 262.058594 180.003906 L 262.058594 186.953125 L 260.136719 186.953125 L 260.136719 180.003906 C 260.136719 179.175781 259.941406 178.53125 259.558594 178.082031 C 259.183594 177.625 258.613281 177.390625 257.859375 177.390625 C 257.285156 177.390625 256.746094 177.53125 256.253906 177.800781 C 255.765625 178.078125 255.316406 178.449219 254.90625 178.921875 L 254.90625 186.953125 L 252.964844 186.953125 L 252.964844 171.078125 L 254.90625 171.078125 Z M 254.90625 177.484375 " fill-opacity="1" fill-rule="nonzero"/><path fill="#6d7856" d="M 273.042969 178.285156 L 273.824219 178.285156 C 274.097656 178.285156 274.316406 178.257812 274.480469 178.195312 C 274.652344 178.117188 274.804688 177.996094 274.945312 177.820312 L 280.082031 172.011719 C 280.21875 171.824219 280.367188 171.695312 280.53125 171.621094 C 280.6875 171.542969 280.886719 171.507812 281.109375 171.507812 L 282.882812 171.507812 L 277 178.15625 C 276.851562 178.332031 276.707031 178.472656 276.570312 178.585938 C 276.445312 178.699219 276.308594 178.792969 276.160156 178.867188 C 276.347656 178.929688 276.519531 179.023438 276.683594 179.144531 C 276.839844 179.273438 277 179.433594 277.148438 179.632812 L 283.292969 186.953125 L 281.484375 186.953125 C 281.34375 186.953125 281.226562 186.949219 281.128906 186.933594 C 281.023438 186.910156 280.941406 186.878906 280.867188 186.839844 C 280.800781 186.804688 280.742188 186.761719 280.679688 186.710938 C 280.628906 186.648438 280.578125 186.578125 280.53125 186.503906 L 275.207031 180.378906 C 275.058594 180.207031 274.898438 180.078125 274.742188 180.003906 C 274.578125 179.921875 274.328125 179.875 273.992188 179.875 L 273.042969 179.875 L 273.042969 186.953125 L 270.96875 186.953125 L 270.96875 171.507812 L 273.042969 171.507812 Z M 273.042969 178.285156 " fill-opacity="1" fill-rule="nonzero"/><path fill="#6d7856" d="M 286.585938 177.613281 C 286.816406 177.351562 287.070312 177.121094 287.332031 176.90625 C 287.601562 176.679688 287.890625 176.492188 288.191406 176.34375 C 288.488281 176.195312 288.808594 176.078125 289.144531 175.988281 C 289.480469 175.90625 289.839844 175.859375 290.226562 175.859375 C 290.824219 175.859375 291.347656 175.960938 291.796875 176.15625 C 292.253906 176.359375 292.636719 176.636719 292.933594 177 C 293.242188 177.363281 293.476562 177.796875 293.625 178.304688 C 293.785156 178.820312 293.867188 179.382812 293.867188 180.003906 L 293.867188 186.953125 L 291.945312 186.953125 L 291.945312 180.003906 C 291.945312 179.175781 291.75 178.53125 291.367188 178.082031 C 290.992188 177.625 290.421875 177.390625 289.664062 177.390625 C 289.089844 177.390625 288.554688 177.53125 288.058594 177.800781 C 287.574219 178.078125 287.125 178.449219 286.714844 178.921875 L 286.714844 186.953125 L 284.773438 186.953125 L 284.773438 176.046875 L 285.929688 176.046875 C 286.203125 176.046875 286.371094 176.175781 286.433594 176.4375 Z M 286.585938 177.613281 " fill-opacity="1" fill-rule="nonzero"/><path fill="#6d7856" d="M 298.828125 176.046875 L 298.828125 186.953125 L 296.90625 186.953125 L 296.90625 176.046875 Z M 299.242188 172.609375 C 299.242188 172.796875 299.203125 172.972656 299.128906 173.132812 C 299.054688 173.296875 298.945312 173.441406 298.8125 173.5625 C 298.683594 173.6875 298.535156 173.785156 298.363281 173.859375 C 298.199219 173.933594 298.027344 173.972656 297.839844 173.972656 C 297.652344 173.972656 297.476562 173.933594 297.316406 173.859375 C 297.152344 173.785156 297.007812 173.6875 296.886719 173.5625 C 296.773438 173.441406 296.683594 173.296875 296.605469 173.132812 C 296.53125 172.972656 296.496094 172.796875 296.496094 172.609375 C 296.496094 172.421875 296.53125 172.25 296.605469 172.085938 C 296.683594 171.914062 296.773438 171.765625 296.886719 171.636719 C 297.007812 171.515625 297.152344 171.414062 297.316406 171.339844 C 297.476562 171.265625 297.652344 171.226562 297.839844 171.226562 C 298.027344 171.226562 298.199219 171.265625 298.363281 171.339844 C 298.535156 171.414062 298.683594 171.515625 298.8125 171.636719 C 298.945312 171.765625 299.054688 171.914062 299.128906 172.085938 C 299.203125 172.25 299.242188 172.421875 299.242188 172.609375 Z M 299.242188 172.609375 " fill-opacity="1" fill-rule="nonzero"/><path fill="#6d7856" d="M 305.328125 187.121094 C 304.46875 187.121094 303.800781 186.886719 303.328125 186.410156 C 302.867188 185.925781 302.636719 185.230469 302.636719 184.320312 L 302.636719 177.632812 L 301.328125 177.632812 C 301.21875 177.632812 301.113281 177.605469 301.03125 177.539062 C 300.957031 177.480469 300.917969 177.371094 300.917969 177.222656 L 300.917969 176.457031 L 302.710938 176.234375 L 303.140625 172.851562 C 303.164062 172.753906 303.214844 172.675781 303.289062 172.609375 C 303.363281 172.535156 303.464844 172.496094 303.589844 172.496094 L 304.558594 172.496094 L 304.558594 176.25 L 307.714844 176.25 L 307.714844 177.632812 L 304.558594 177.632812 L 304.558594 184.1875 C 304.558594 184.652344 304.671875 184.992188 304.898438 185.214844 C 305.121094 185.441406 305.40625 185.550781 305.753906 185.550781 C 305.953125 185.550781 306.128906 185.527344 306.277344 185.476562 C 306.429688 185.417969 306.550781 185.355469 306.652344 185.289062 C 306.765625 185.230469 306.859375 185.171875 306.933594 185.121094 C 307.007812 185.0625 307.074219 185.027344 307.136719 185.027344 C 307.234375 185.027344 307.324219 185.09375 307.398438 185.214844 L 307.960938 186.132812 C 307.632812 186.445312 307.234375 186.6875 306.765625 186.859375 C 306.300781 187.03125 305.820312 187.121094 305.328125 187.121094 Z M 305.328125 187.121094 " fill-opacity="1" fill-rule="nonzero"/></svg>