<svg xmlns="http://www.w3.org/2000/svg" xmlns:xlink="http://www.w3.org/1999/xlink" width="500" zoomAndPan="magnify" viewBox="0 0 375 374.999991" height="500" preserveAspectRatio="xMidYMid meet" version="1.0"><defs><g/></defs><g fill="#929876" fill-opacity="1"><g transform="translate(26.343144, 255.817279)"><g><path d="M 13.632812 -1.121094 C 24.648438 -1.121094 36.042969 -12.699219 43.511719 -20.726562 C 47.246094 -25.023438 50.980469 -29.320312 54.527344 -33.800781 C 58.078125 -38.09375 61.625 -42.578125 65.171875 -47.058594 C 67.601562 -50.421875 70.214844 -53.78125 72.644531 -57.328125 C 75.070312 -60.691406 77.683594 -64.050781 80.484375 -67.226562 C 82.167969 -69.28125 83.847656 -70.960938 85.339844 -73.015625 C 86.089844 -73.761719 85.902344 -75.070312 84.96875 -75.628906 C 84.78125 -75.816406 84.59375 -75.816406 84.40625 -75.816406 C 84.035156 -75.816406 83.660156 -75.628906 83.101562 -75.070312 L 81.046875 -72.828125 C 76.003906 -67.039062 71.523438 -61.066406 66.855469 -54.902344 C 59.570312 -45.191406 51.914062 -35.667969 43.882812 -26.332031 C 36.976562 -17.554688 22.78125 -3.734375 11.203125 -3.734375 C 8.777344 -3.734375 6.910156 -4.855469 5.601562 -7.28125 C 5.414062 -7.84375 5.230469 -8.214844 5.042969 -8.777344 C 4.855469 -9.335938 4.480469 -9.898438 4.296875 -10.457031 C 2.988281 -14.9375 2.425781 -19.609375 2.988281 -24.277344 C 5.414062 -52.476562 21.664062 -82.167969 42.390625 -101.027344 C 45.191406 -103.457031 47.992188 -104.949219 50.980469 -105.882812 C 53.78125 -106.628906 56.023438 -107.5625 58.449219 -108.496094 C 58.824219 -108.683594 59.199219 -109.058594 59.757812 -109.246094 C 60.132812 -109.429688 60.503906 -109.617188 60.691406 -109.804688 C 61.4375 -110.179688 61.625 -110.925781 61.4375 -112.046875 C 61.25 -113.164062 60.691406 -113.726562 59.757812 -113.726562 C 58.078125 -113.726562 56.582031 -113.539062 55.089844 -112.980469 C 52.660156 -112.046875 50.234375 -110.738281 47.621094 -109.058594 C 45.75 -107.75 43.882812 -107.003906 42.203125 -106.628906 C 35.667969 -104.574219 29.691406 -102.707031 22.78125 -102.707031 C 21.101562 -102.707031 19.792969 -103.082031 18.675781 -103.640625 C 18.113281 -105.882812 19.609375 -107.375 20.914062 -109.058594 C 28.386719 -120.074219 46.6875 -132.585938 60.132812 -134.453125 L 60.878906 -134.453125 C 61.8125 -134.453125 62.558594 -134.269531 62.933594 -133.707031 C 63.304688 -133.148438 63.304688 -132.773438 62.933594 -132.402344 C 62.371094 -132.027344 62 -131.652344 61.8125 -131.28125 C 61.625 -130.90625 61.25 -130.53125 60.691406 -129.972656 C 60.691406 -129.972656 60.691406 -129.785156 60.503906 -129.597656 L 60.503906 -129.226562 C 60.691406 -129.039062 61.066406 -129.039062 61.25 -128.851562 C 61.4375 -128.664062 61.4375 -128.664062 61.625 -128.664062 C 63.867188 -129.226562 65.359375 -131.09375 65.171875 -133.148438 C 64.988281 -135.386719 63.679688 -136.695312 61.625 -137.070312 C 60.691406 -137.253906 59.945312 -137.441406 59.382812 -137.441406 C 58.449219 -137.441406 57.144531 -137.253906 55.835938 -136.882812 C 54.34375 -136.320312 53.222656 -135.949219 52.289062 -135.761719 C 38.84375 -131.464844 28.386719 -123.0625 19.421875 -112.417969 C 18.488281 -111.113281 17.554688 -109.804688 16.621094 -108.125 C 14.566406 -104.390625 16.621094 -100.652344 20.914062 -99.90625 C 21.476562 -99.71875 22.222656 -99.71875 23.15625 -99.71875 L 26.144531 -99.71875 C 27.636719 -99.71875 29.132812 -99.90625 30.625 -100.28125 C 31.933594 -100.46875 33.425781 -100.839844 34.734375 -101.027344 C 35.292969 -101.214844 35.667969 -101.402344 36.042969 -101.402344 C 36.226562 -101.402344 36.414062 -101.214844 36.601562 -100.839844 C 37.160156 -100.28125 36.414062 -99.90625 35.855469 -99.347656 C 17.179688 -80.671875 0.558594 -49.113281 0 -22.035156 C 0 -12.511719 3.175781 -1.121094 13.632812 -1.121094 Z M 13.632812 -1.121094 "/></g></g></g><g fill="#929876" fill-opacity="1"><g transform="translate(107.76102, 255.817279)"><g><path d="M 58.261719 -24.835938 C 59.570312 -24.835938 60.503906 -25.210938 61.25 -25.769531 C 62.371094 -26.515625 63.304688 -27.449219 64.050781 -28.570312 C 69.28125 -35.109375 72.828125 -43.699219 76.003906 -51.355469 C 77.125 -54.15625 78.246094 -56.957031 79.550781 -59.757812 C 80.671875 -62.371094 81.792969 -65.171875 82.914062 -67.972656 C 83.660156 -69.65625 84.222656 -71.523438 84.78125 -73.203125 C 85.339844 -74.136719 84.222656 -75.445312 83.289062 -75.445312 C 82.726562 -75.628906 82.167969 -75.257812 81.605469 -74.324219 C 81.417969 -73.761719 81.046875 -73.203125 80.859375 -72.644531 C 80.671875 -72.082031 80.300781 -71.335938 80.113281 -70.777344 C 78.433594 -66.855469 76.75 -62.933594 75.257812 -59.011719 C 73.578125 -55.089844 72.082031 -51.167969 70.402344 -47.246094 C 67.601562 -41.457031 65.171875 -36.226562 61.625 -31 C 61.066406 -30.4375 60.691406 -29.691406 60.316406 -28.945312 C 59.757812 -28.011719 59.199219 -27.636719 58.261719 -27.824219 C 57.328125 -28.011719 56.769531 -28.757812 56.582031 -29.691406 C 56.394531 -30.625 56.210938 -31.371094 56.023438 -32.304688 C 53.96875 -39.777344 53.78125 -47.246094 53.96875 -54.902344 C 54.15625 -70.027344 56.210938 -84.78125 59.199219 -99.71875 C 59.757812 -102.894531 60.503906 -106.070312 61.25 -109.246094 C 62 -112.230469 62.746094 -115.40625 63.304688 -118.582031 C 63.492188 -119.140625 63.679688 -119.890625 63.679688 -120.636719 C 63.679688 -121.382812 63.679688 -122.128906 63.867188 -122.875 C 63.867188 -123.996094 63.304688 -125.117188 62.371094 -126.425781 C 62 -126.796875 61.625 -126.984375 61.066406 -126.984375 C 60.878906 -126.984375 60.503906 -126.796875 59.945312 -126.613281 C 54.902344 -123.0625 46.871094 -103.269531 44.816406 -96.917969 C 40.335938 -83.472656 37.347656 -69.839844 34.359375 -56.210938 L 31.558594 -43.324219 C 31.371094 -42.390625 31.1875 -41.457031 29.878906 -40.898438 C 29.691406 -42.015625 29.503906 -43.136719 29.320312 -44.257812 C 29.132812 -45.191406 29.132812 -46.3125 28.945312 -47.246094 C 28.386719 -55.277344 29.132812 -63.304688 30.066406 -71.335938 C 31.371094 -82.726562 33.800781 -94.117188 36.601562 -105.324219 C 38.28125 -112.230469 39.964844 -118.953125 41.457031 -126.238281 C 42.203125 -129.226562 42.949219 -132.214844 42.949219 -135.761719 C 42.949219 -137.070312 42.949219 -137.816406 42.203125 -139.125 C 41.644531 -140.058594 40.898438 -140.429688 40.335938 -140.429688 C 39.777344 -140.429688 39.214844 -140.058594 38.65625 -139.496094 C 37.722656 -138.191406 36.976562 -137.253906 36.226562 -135.949219 C 23.53125 -114.101562 16.058594 -82.539062 11.578125 -57.703125 C 11.019531 -54.527344 10.457031 -51.539062 9.898438 -48.554688 C 9.335938 -45.566406 8.777344 -42.578125 8.03125 -39.589844 C 7.84375 -38.65625 7.65625 -37.722656 6.347656 -37.160156 C 5.601562 -38.84375 5.230469 -40.335938 5.042969 -42.015625 C 4.855469 -43.699219 4.480469 -45.378906 4.296875 -47.058594 C 3.363281 -62.558594 4.480469 -78.433594 7.46875 -94.679688 C 9.148438 -103.457031 11.390625 -112.046875 14.191406 -120.824219 L 18.113281 -133.519531 C 18.675781 -134.828125 19.046875 -135.574219 18.300781 -136.882812 C 18.113281 -137.070312 17.742188 -137.441406 17.179688 -137.628906 C 16.808594 -137.628906 16.621094 -137.441406 16.621094 -137.070312 L 15.5 -134.828125 C 8.964844 -116.714844 3.546875 -98.414062 1.492188 -79.179688 C 0.558594 -69.65625 -0.375 -59.945312 0.1875 -50.421875 C 0.1875 -46.6875 1.308594 -37.347656 3.546875 -34.175781 C 4.480469 -33.054688 5.601562 -32.492188 6.910156 -32.492188 C 8.589844 -32.492188 9.710938 -33.238281 10.457031 -34.734375 C 11.203125 -36.414062 11.765625 -38.09375 12.136719 -40.148438 C 12.699219 -43.324219 13.445312 -46.3125 14.003906 -49.488281 C 14.566406 -52.476562 15.125 -55.460938 15.6875 -58.636719 C 19.046875 -79.925781 26.332031 -110.550781 36.789062 -129.785156 C 37.347656 -131.09375 37.722656 -132.585938 39.402344 -133.335938 C 39.589844 -132.027344 39.589844 -130.90625 39.214844 -129.972656 C 38.84375 -128.851562 38.46875 -127.730469 38.28125 -126.796875 C 37.160156 -122.128906 36.042969 -117.273438 34.921875 -112.605469 C 33.613281 -107.9375 32.492188 -103.082031 31.371094 -98.414062 C 27.824219 -84.40625 25.769531 -70.214844 25.210938 -55.835938 C 25.023438 -51.726562 25.210938 -47.433594 25.769531 -43.136719 C 25.769531 -39.402344 27.078125 -35.855469 31.371094 -35.855469 C 32.492188 -36.042969 33.238281 -36.789062 33.800781 -38.09375 C 34.175781 -39.402344 34.546875 -40.523438 34.921875 -41.644531 C 35.292969 -42.765625 35.667969 -43.882812 35.855469 -45.191406 C 36.414062 -48.179688 37.160156 -51.167969 37.722656 -54.15625 C 38.28125 -56.957031 38.84375 -59.945312 39.402344 -62.933594 C 43.699219 -81.605469 47.992188 -101.402344 57.515625 -118.019531 C 58.261719 -119.328125 58.824219 -120.636719 60.132812 -121.382812 C 60.316406 -120.824219 60.503906 -120.636719 60.503906 -120.449219 C 60.503906 -119.890625 60.316406 -118.953125 60.132812 -118.019531 C 56.957031 -105.507812 54.15625 -93.746094 52.476562 -81.046875 C 50.792969 -69.839844 49.671875 -59.011719 50.234375 -47.804688 C 50.421875 -41.269531 50.980469 -33.613281 53.78125 -27.636719 C 54.714844 -25.769531 56.210938 -24.835938 58.261719 -24.835938 Z M 58.261719 -24.835938 "/></g></g></g><g fill="#929876" fill-opacity="1"><g transform="translate(188.245207, 255.817279)"><g><path d="M 58.261719 -24.835938 C 59.570312 -24.835938 60.503906 -25.210938 61.25 -25.769531 C 62.371094 -26.515625 63.304688 -27.449219 64.050781 -28.570312 C 69.28125 -35.109375 72.828125 -43.699219 76.003906 -51.355469 C 77.125 -54.15625 78.246094 -56.957031 79.550781 -59.757812 C 80.671875 -62.371094 81.792969 -65.171875 82.914062 -67.972656 C 83.660156 -69.65625 84.222656 -71.523438 84.78125 -73.203125 C 85.339844 -74.136719 84.222656 -75.445312 83.289062 -75.445312 C 82.726562 -75.628906 82.167969 -75.257812 81.605469 -74.324219 C 81.417969 -73.761719 81.046875 -73.203125 80.859375 -72.644531 C 80.671875 -72.082031 80.300781 -71.335938 80.113281 -70.777344 C 78.433594 -66.855469 76.75 -62.933594 75.257812 -59.011719 C 73.578125 -55.089844 72.082031 -51.167969 70.402344 -47.246094 C 67.601562 -41.457031 65.171875 -36.226562 61.625 -31 C 61.066406 -30.4375 60.691406 -29.691406 60.316406 -28.945312 C 59.757812 -28.011719 59.199219 -27.636719 58.261719 -27.824219 C 57.328125 -28.011719 56.769531 -28.757812 56.582031 -29.691406 C 56.394531 -30.625 56.210938 -31.371094 56.023438 -32.304688 C 53.96875 -39.777344 53.78125 -47.246094 53.96875 -54.902344 C 54.15625 -70.027344 56.210938 -84.78125 59.199219 -99.71875 C 59.757812 -102.894531 60.503906 -106.070312 61.25 -109.246094 C 62 -112.230469 62.746094 -115.40625 63.304688 -118.582031 C 63.492188 -119.140625 63.679688 -119.890625 63.679688 -120.636719 C 63.679688 -121.382812 63.679688 -122.128906 63.867188 -122.875 C 63.867188 -123.996094 63.304688 -125.117188 62.371094 -126.425781 C 62 -126.796875 61.625 -126.984375 61.066406 -126.984375 C 60.878906 -126.984375 60.503906 -126.796875 59.945312 -126.613281 C 54.902344 -123.0625 46.871094 -103.269531 44.816406 -96.917969 C 40.335938 -83.472656 37.347656 -69.839844 34.359375 -56.210938 L 31.558594 -43.324219 C 31.371094 -42.390625 31.1875 -41.457031 29.878906 -40.898438 C 29.691406 -42.015625 29.503906 -43.136719 29.320312 -44.257812 C 29.132812 -45.191406 29.132812 -46.3125 28.945312 -47.246094 C 28.386719 -55.277344 29.132812 -63.304688 30.066406 -71.335938 C 31.371094 -82.726562 33.800781 -94.117188 36.601562 -105.324219 C 38.28125 -112.230469 39.964844 -118.953125 41.457031 -126.238281 C 42.203125 -129.226562 42.949219 -132.214844 42.949219 -135.761719 C 42.949219 -137.070312 42.949219 -137.816406 42.203125 -139.125 C 41.644531 -140.058594 40.898438 -140.429688 40.335938 -140.429688 C 39.777344 -140.429688 39.214844 -140.058594 38.65625 -139.496094 C 37.722656 -138.191406 36.976562 -137.253906 36.226562 -135.949219 C 23.53125 -114.101562 16.058594 -82.539062 11.578125 -57.703125 C 11.019531 -54.527344 10.457031 -51.539062 9.898438 -48.554688 C 9.335938 -45.566406 8.777344 -42.578125 8.03125 -39.589844 C 7.84375 -38.65625 7.65625 -37.722656 6.347656 -37.160156 C 5.601562 -38.84375 5.230469 -40.335938 5.042969 -42.015625 C 4.855469 -43.699219 4.480469 -45.378906 4.296875 -47.058594 C 3.363281 -62.558594 4.480469 -78.433594 7.46875 -94.679688 C 9.148438 -103.457031 11.390625 -112.046875 14.191406 -120.824219 L 18.113281 -133.519531 C 18.675781 -134.828125 19.046875 -135.574219 18.300781 -136.882812 C 18.113281 -137.070312 17.742188 -137.441406 17.179688 -137.628906 C 16.808594 -137.628906 16.621094 -137.441406 16.621094 -137.070312 L 15.5 -134.828125 C 8.964844 -116.714844 3.546875 -98.414062 1.492188 -79.179688 C 0.558594 -69.65625 -0.375 -59.945312 0.1875 -50.421875 C 0.1875 -46.6875 1.308594 -37.347656 3.546875 -34.175781 C 4.480469 -33.054688 5.601562 -32.492188 6.910156 -32.492188 C 8.589844 -32.492188 9.710938 -33.238281 10.457031 -34.734375 C 11.203125 -36.414062 11.765625 -38.09375 12.136719 -40.148438 C 12.699219 -43.324219 13.445312 -46.3125 14.003906 -49.488281 C 14.566406 -52.476562 15.125 -55.460938 15.6875 -58.636719 C 19.046875 -79.925781 26.332031 -110.550781 36.789062 -129.785156 C 37.347656 -131.09375 37.722656 -132.585938 39.402344 -133.335938 C 39.589844 -132.027344 39.589844 -130.90625 39.214844 -129.972656 C 38.84375 -128.851562 38.46875 -127.730469 38.28125 -126.796875 C 37.160156 -122.128906 36.042969 -117.273438 34.921875 -112.605469 C 33.613281 -107.9375 32.492188 -103.082031 31.371094 -98.414062 C 27.824219 -84.40625 25.769531 -70.214844 25.210938 -55.835938 C 25.023438 -51.726562 25.210938 -47.433594 25.769531 -43.136719 C 25.769531 -39.402344 27.078125 -35.855469 31.371094 -35.855469 C 32.492188 -36.042969 33.238281 -36.789062 33.800781 -38.09375 C 34.175781 -39.402344 34.546875 -40.523438 34.921875 -41.644531 C 35.292969 -42.765625 35.667969 -43.882812 35.855469 -45.191406 C 36.414062 -48.179688 37.160156 -51.167969 37.722656 -54.15625 C 38.28125 -56.957031 38.84375 -59.945312 39.402344 -62.933594 C 43.699219 -81.605469 47.992188 -101.402344 57.515625 -118.019531 C 58.261719 -119.328125 58.824219 -120.636719 60.132812 -121.382812 C 60.316406 -120.824219 60.503906 -120.636719 60.503906 -120.449219 C 60.503906 -119.890625 60.316406 -118.953125 60.132812 -118.019531 C 56.957031 -105.507812 54.15625 -93.746094 52.476562 -81.046875 C 50.792969 -69.839844 49.671875 -59.011719 50.234375 -47.804688 C 50.421875 -41.269531 50.980469 -33.613281 53.78125 -27.636719 C 54.714844 -25.769531 56.210938 -24.835938 58.261719 -24.835938 Z M 58.261719 -24.835938 "/></g></g></g><g fill="#929876" fill-opacity="1"><g transform="translate(268.729405, 255.817279)"><g><path d="M 46.5 0 C 47.058594 0 47.621094 -0.1875 47.992188 -0.375 C 43.882812 -7.65625 41.644531 -22.96875 41.644531 -31.371094 C 41.082031 -44.257812 41.457031 -56.957031 43.699219 -69.65625 C 44.257812 -72.457031 44.070312 -72.269531 46.871094 -72.269531 C 49.859375 -72.082031 52.847656 -72.082031 56.023438 -71.894531 C 59.011719 -71.710938 62 -71.523438 65.171875 -71.335938 C 66.480469 -71.335938 67.972656 -71.335938 69.28125 -71.335938 C 70.589844 -71.148438 72.082031 -71.148438 73.390625 -71.148438 C 76.191406 -71.148438 78.617188 -71.335938 81.417969 -71.894531 C 81.980469 -72.082031 82.726562 -72.457031 83.472656 -72.644531 C 84.035156 -72.828125 84.222656 -73.203125 84.222656 -73.761719 C 84.222656 -74.136719 84.222656 -74.511719 84.035156 -75.070312 C 83.847656 -75.628906 83.472656 -75.816406 82.914062 -75.816406 L 82.351562 -75.816406 C 78.804688 -74.511719 75.070312 -74.324219 71.335938 -74.324219 C 70.777344 -74.324219 70.027344 -74.324219 69.28125 -74.324219 C 68.535156 -74.324219 67.789062 -74.324219 67.039062 -74.511719 C 63.867188 -74.695312 60.878906 -74.695312 57.703125 -74.882812 C 54.527344 -75.070312 51.355469 -75.070312 48.179688 -75.257812 C 47.804688 -75.445312 47.246094 -75.445312 46.5 -75.445312 C 45.378906 -75.628906 45.003906 -76.191406 45.191406 -77.3125 L 45.75 -81.234375 C 48.738281 -93.929688 51.914062 -106.257812 55.648438 -118.953125 C 55.835938 -119.890625 56.210938 -120.824219 56.394531 -121.757812 C 56.582031 -122.691406 56.769531 -123.625 56.957031 -124.558594 C 57.144531 -125.863281 56.957031 -126.984375 56.210938 -127.917969 C 56.023438 -128.480469 55.648438 -128.664062 54.714844 -128.664062 C 54.34375 -128.664062 54.15625 -128.664062 53.96875 -128.480469 L 52.101562 -126.796875 C 42.203125 -112.792969 33.054688 -93.929688 27.636719 -77.871094 C 26.703125 -75.445312 25.210938 -74.136719 22.78125 -73.761719 C 14.566406 -71.710938 7.46875 -68.722656 2.054688 -62 C 0.746094 -60.691406 0 -59.382812 0 -57.328125 C -0.558594 -54.15625 2.054688 -51.726562 5.042969 -51.726562 C 5.601562 -51.726562 6.164062 -51.726562 6.535156 -51.914062 C 6.722656 -51.914062 6.910156 -52.101562 6.910156 -52.660156 C 6.910156 -52.847656 6.722656 -53.222656 6.535156 -53.410156 L 4.480469 -53.96875 C 2.425781 -54.34375 1.867188 -55.460938 2.613281 -57.328125 C 5.601562 -64.050781 16.246094 -68.90625 23.15625 -70.402344 C 23.34375 -70.402344 23.714844 -70.214844 24.464844 -70.027344 L 23.34375 -66.105469 L 13.257812 -35.292969 C 12.699219 -33.425781 12.136719 -31.558594 11.578125 -29.691406 C 11.019531 -27.824219 10.269531 -25.957031 9.710938 -24.089844 C 9.523438 -23.53125 9.335938 -22.78125 9.148438 -22.222656 C 8.964844 -21.664062 8.402344 -21.101562 7.65625 -20.914062 C 7.46875 -22.597656 7.84375 -24.277344 8.777344 -26.332031 C 8.964844 -26.890625 8.777344 -27.265625 8.214844 -27.449219 C 8.03125 -27.636719 7.65625 -27.824219 7.28125 -27.824219 C 6.535156 -27.824219 5.976562 -27.449219 5.789062 -26.515625 C 4.855469 -23.714844 4.296875 -20.914062 4.480469 -18.488281 C 4.667969 -16.433594 5.601562 -15.875 7.28125 -15.3125 C 8.589844 -15.3125 9.710938 -16.058594 10.269531 -17.367188 C 11.578125 -19.792969 12.886719 -22.78125 13.820312 -26.332031 C 15.875 -33.238281 18.113281 -39.964844 20.355469 -46.871094 C 22.597656 -53.59375 24.835938 -60.316406 26.890625 -67.226562 L 28.011719 -70.402344 C 28.386719 -71.335938 28.945312 -71.710938 29.691406 -71.894531 C 33.238281 -72.457031 35.667969 -72.644531 39.214844 -72.644531 C 40.148438 -72.457031 40.523438 -72.082031 40.523438 -71.148438 C 40.335938 -69.839844 40.148438 -68.90625 40.148438 -67.601562 C 39.964844 -65.921875 39.589844 -64.238281 39.402344 -62.746094 C 39.214844 -61.066406 39.027344 -59.382812 38.84375 -57.703125 C 38.09375 -46.5 37.347656 -35.855469 38.65625 -24.835938 C 39.402344 -18.300781 39.964844 -12.324219 42.015625 -6.347656 C 42.578125 -4.667969 43.136719 -2.988281 44.070312 -1.492188 C 44.632812 -0.558594 45.566406 0 46.5 0 Z M 31.746094 -75.445312 C 30.625 -75.445312 30.066406 -75.816406 30.253906 -76.5625 C 30.4375 -77.125 30.8125 -78.433594 31.371094 -80.113281 C 36.414062 -93.183594 42.390625 -105.695312 49.300781 -117.648438 C 49.859375 -118.582031 50.421875 -119.328125 50.980469 -120.261719 C 51.355469 -121.007812 52.101562 -121.757812 53.035156 -122.316406 C 53.222656 -121.570312 53.410156 -121.007812 53.222656 -120.449219 C 53.035156 -119.890625 52.847656 -119.328125 52.660156 -118.769531 C 48.738281 -105.324219 45.191406 -92.4375 42.203125 -78.992188 C 42.015625 -78.804688 42.015625 -78.617188 42.015625 -78.433594 C 42.015625 -78.246094 42.015625 -77.871094 41.832031 -77.683594 C 41.644531 -76.5625 41.082031 -76.003906 39.777344 -76.003906 C 38.84375 -76.003906 38.09375 -76.003906 37.347656 -76.003906 C 36.414062 -76.003906 35.667969 -76.003906 34.921875 -75.816406 C 33.425781 -75.628906 32.492188 -75.445312 31.746094 -75.445312 Z M 31.746094 -75.445312 "/></g></g></g><g fill="#929876" fill-opacity="1"><g transform="translate(81.418021, 260.852328)"><g><path d="M 6.1875 -1.390625 C 6.6875 -1.390625 7.113281 -1.445312 7.46875 -1.5625 C 7.832031 -1.675781 8.128906 -1.835938 8.359375 -2.046875 C 8.585938 -2.253906 8.753906 -2.5 8.859375 -2.78125 C 8.972656 -3.0625 9.03125 -3.375 9.03125 -3.71875 C 9.03125 -4.382812 8.789062 -4.910156 8.3125 -5.296875 C 7.84375 -5.691406 7.132812 -5.890625 6.1875 -5.890625 L 3.390625 -5.890625 L 3.390625 -1.390625 Z M 3.390625 -11.546875 L 3.390625 -7.125 L 5.703125 -7.125 C 6.191406 -7.125 6.617188 -7.175781 6.984375 -7.28125 C 7.347656 -7.394531 7.644531 -7.546875 7.875 -7.734375 C 8.113281 -7.929688 8.289062 -8.164062 8.40625 -8.4375 C 8.519531 -8.71875 8.578125 -9.019531 8.578125 -9.34375 C 8.578125 -10.101562 8.347656 -10.660156 7.890625 -11.015625 C 7.441406 -11.367188 6.734375 -11.546875 5.765625 -11.546875 Z M 5.765625 -12.921875 C 6.554688 -12.921875 7.238281 -12.84375 7.8125 -12.6875 C 8.394531 -12.53125 8.867188 -12.304688 9.234375 -12.015625 C 9.609375 -11.722656 9.878906 -11.367188 10.046875 -10.953125 C 10.222656 -10.535156 10.3125 -10.066406 10.3125 -9.546875 C 10.3125 -9.222656 10.257812 -8.914062 10.15625 -8.625 C 10.0625 -8.332031 9.914062 -8.0625 9.71875 -7.8125 C 9.519531 -7.5625 9.269531 -7.332031 8.96875 -7.125 C 8.664062 -6.925781 8.304688 -6.765625 7.890625 -6.640625 C 8.847656 -6.460938 9.5625 -6.125 10.03125 -5.625 C 10.507812 -5.132812 10.75 -4.484375 10.75 -3.671875 C 10.75 -3.128906 10.648438 -2.628906 10.453125 -2.171875 C 10.253906 -1.722656 9.957031 -1.335938 9.5625 -1.015625 C 9.175781 -0.691406 8.703125 -0.441406 8.140625 -0.265625 C 7.578125 -0.0859375 6.9375 0 6.21875 0 L 1.65625 0 L 1.65625 -12.921875 Z M 5.765625 -12.921875 "/></g></g></g><g fill="#929876" fill-opacity="1"><g transform="translate(93.070131, 260.852328)"><g><path d="M 9.15625 -9.125 L 4.0625 2.703125 C 4 2.816406 3.925781 2.910156 3.84375 2.984375 C 3.769531 3.054688 3.648438 3.09375 3.484375 3.09375 L 2.296875 3.09375 L 3.953125 -0.53125 L 0.1875 -9.125 L 1.578125 -9.125 C 1.710938 -9.125 1.820312 -9.085938 1.90625 -9.015625 C 1.988281 -8.953125 2.046875 -8.878906 2.078125 -8.796875 L 4.515625 -3.046875 C 4.609375 -2.796875 4.691406 -2.53125 4.765625 -2.25 C 4.847656 -2.53125 4.9375 -2.800781 5.03125 -3.0625 L 7.40625 -8.796875 C 7.4375 -8.890625 7.492188 -8.96875 7.578125 -9.03125 C 7.671875 -9.09375 7.769531 -9.125 7.875 -9.125 Z M 9.15625 -9.125 "/></g></g></g><g fill="#929876" fill-opacity="1"><g transform="translate(102.361177, 260.852328)"><g/></g></g><g fill="#929876" fill-opacity="1"><g transform="translate(106.97516, 260.852328)"><g><path d="M 9.625 -1.421875 L 9.609375 0 L 1.65625 0 L 1.65625 -12.921875 L 9.609375 -12.921875 L 9.609375 -11.5 L 3.40625 -11.5 L 3.40625 -7.203125 L 8.421875 -7.203125 L 8.421875 -5.828125 L 3.40625 -5.828125 L 3.40625 -1.421875 Z M 9.625 -1.421875 "/></g></g></g><g fill="#929876" fill-opacity="1"><g transform="translate(117.383652, 260.852328)"><g><path d="M 1.265625 0 L 1.265625 -9.125 L 2.234375 -9.125 C 2.460938 -9.125 2.601562 -9.015625 2.65625 -8.796875 L 2.78125 -7.859375 C 3.113281 -8.273438 3.488281 -8.613281 3.90625 -8.875 C 4.332031 -9.144531 4.820312 -9.28125 5.375 -9.28125 C 5.988281 -9.28125 6.484375 -9.109375 6.859375 -8.765625 C 7.242188 -8.421875 7.519531 -7.957031 7.6875 -7.375 C 7.820312 -7.707031 7.992188 -7.992188 8.203125 -8.234375 C 8.410156 -8.472656 8.640625 -8.671875 8.890625 -8.828125 C 9.148438 -8.984375 9.425781 -9.097656 9.71875 -9.171875 C 10.007812 -9.242188 10.304688 -9.28125 10.609375 -9.28125 C 11.085938 -9.28125 11.515625 -9.203125 11.890625 -9.046875 C 12.265625 -8.890625 12.582031 -8.664062 12.84375 -8.375 C 13.113281 -8.082031 13.316406 -7.71875 13.453125 -7.28125 C 13.585938 -6.851562 13.65625 -6.363281 13.65625 -5.8125 L 13.65625 0 L 12.046875 0 L 12.046875 -5.8125 C 12.046875 -6.53125 11.890625 -7.070312 11.578125 -7.4375 C 11.265625 -7.8125 10.8125 -8 10.21875 -8 C 9.957031 -8 9.707031 -7.953125 9.46875 -7.859375 C 9.226562 -7.765625 9.019531 -7.625 8.84375 -7.4375 C 8.664062 -7.257812 8.523438 -7.035156 8.421875 -6.765625 C 8.316406 -6.492188 8.265625 -6.175781 8.265625 -5.8125 L 8.265625 0 L 6.640625 0 L 6.640625 -5.8125 C 6.640625 -6.550781 6.492188 -7.097656 6.203125 -7.453125 C 5.910156 -7.816406 5.476562 -8 4.90625 -8 C 4.507812 -8 4.144531 -7.890625 3.8125 -7.671875 C 3.476562 -7.460938 3.171875 -7.175781 2.890625 -6.8125 L 2.890625 0 Z M 1.265625 0 "/></g></g></g><g fill="#929876" fill-opacity="1"><g transform="translate(132.20787, 260.852328)"><g><path d="M 1.265625 0 L 1.265625 -9.125 L 2.234375 -9.125 C 2.460938 -9.125 2.601562 -9.015625 2.65625 -8.796875 L 2.78125 -7.859375 C 3.113281 -8.273438 3.488281 -8.613281 3.90625 -8.875 C 4.332031 -9.144531 4.820312 -9.28125 5.375 -9.28125 C 5.988281 -9.28125 6.484375 -9.109375 6.859375 -8.765625 C 7.242188 -8.421875 7.519531 -7.957031 7.6875 -7.375 C 7.820312 -7.707031 7.992188 -7.992188 8.203125 -8.234375 C 8.410156 -8.472656 8.640625 -8.671875 8.890625 -8.828125 C 9.148438 -8.984375 9.425781 -9.097656 9.71875 -9.171875 C 10.007812 -9.242188 10.304688 -9.28125 10.609375 -9.28125 C 11.085938 -9.28125 11.515625 -9.203125 11.890625 -9.046875 C 12.265625 -8.890625 12.582031 -8.664062 12.84375 -8.375 C 13.113281 -8.082031 13.316406 -7.71875 13.453125 -7.28125 C 13.585938 -6.851562 13.65625 -6.363281 13.65625 -5.8125 L 13.65625 0 L 12.046875 0 L 12.046875 -5.8125 C 12.046875 -6.53125 11.890625 -7.070312 11.578125 -7.4375 C 11.265625 -7.8125 10.8125 -8 10.21875 -8 C 9.957031 -8 9.707031 -7.953125 9.46875 -7.859375 C 9.226562 -7.765625 9.019531 -7.625 8.84375 -7.4375 C 8.664062 -7.257812 8.523438 -7.035156 8.421875 -6.765625 C 8.316406 -6.492188 8.265625 -6.175781 8.265625 -5.8125 L 8.265625 0 L 6.640625 0 L 6.640625 -5.8125 C 6.640625 -6.550781 6.492188 -7.097656 6.203125 -7.453125 C 5.910156 -7.816406 5.476562 -8 4.90625 -8 C 4.507812 -8 4.144531 -7.890625 3.8125 -7.671875 C 3.476562 -7.460938 3.171875 -7.175781 2.890625 -6.8125 L 2.890625 0 Z M 1.265625 0 "/></g></g></g><g fill="#929876" fill-opacity="1"><g transform="translate(147.032087, 260.852328)"><g><path d="M 6.21875 -4.109375 C 5.476562 -4.085938 4.847656 -4.03125 4.328125 -3.9375 C 3.804688 -3.84375 3.378906 -3.71875 3.046875 -3.5625 C 2.722656 -3.414062 2.488281 -3.238281 2.34375 -3.03125 C 2.195312 -2.832031 2.125 -2.609375 2.125 -2.359375 C 2.125 -2.117188 2.160156 -1.910156 2.234375 -1.734375 C 2.316406 -1.554688 2.425781 -1.410156 2.5625 -1.296875 C 2.695312 -1.191406 2.851562 -1.113281 3.03125 -1.0625 C 3.21875 -1.007812 3.421875 -0.984375 3.640625 -0.984375 C 3.921875 -0.984375 4.175781 -1.007812 4.40625 -1.0625 C 4.644531 -1.125 4.863281 -1.207031 5.0625 -1.3125 C 5.269531 -1.425781 5.46875 -1.554688 5.65625 -1.703125 C 5.851562 -1.847656 6.039062 -2.019531 6.21875 -2.21875 Z M 1.03125 -7.84375 C 1.539062 -8.332031 2.085938 -8.695312 2.671875 -8.9375 C 3.253906 -9.175781 3.898438 -9.296875 4.609375 -9.296875 C 5.117188 -9.296875 5.570312 -9.210938 5.96875 -9.046875 C 6.363281 -8.878906 6.695312 -8.644531 6.96875 -8.34375 C 7.238281 -8.039062 7.441406 -7.675781 7.578125 -7.25 C 7.722656 -6.820312 7.796875 -6.351562 7.796875 -5.84375 L 7.796875 0 L 7.078125 0 C 6.921875 0 6.800781 -0.0234375 6.71875 -0.078125 C 6.632812 -0.128906 6.566406 -0.226562 6.515625 -0.375 L 6.34375 -1.25 C 6.101562 -1.019531 5.867188 -0.816406 5.640625 -0.640625 C 5.410156 -0.472656 5.164062 -0.332031 4.90625 -0.21875 C 4.65625 -0.101562 4.382812 -0.015625 4.09375 0.046875 C 3.8125 0.109375 3.5 0.140625 3.15625 0.140625 C 2.800781 0.140625 2.46875 0.09375 2.15625 0 C 1.84375 -0.101562 1.566406 -0.253906 1.328125 -0.453125 C 1.097656 -0.648438 0.914062 -0.898438 0.78125 -1.203125 C 0.65625 -1.503906 0.59375 -1.863281 0.59375 -2.28125 C 0.59375 -2.644531 0.691406 -2.992188 0.890625 -3.328125 C 1.085938 -3.660156 1.40625 -3.953125 1.84375 -4.203125 C 2.289062 -4.460938 2.867188 -4.675781 3.578125 -4.84375 C 4.296875 -5.007812 5.175781 -5.101562 6.21875 -5.125 L 6.21875 -5.84375 C 6.21875 -6.550781 6.0625 -7.085938 5.75 -7.453125 C 5.445312 -7.816406 5.003906 -8 4.421875 -8 C 4.023438 -8 3.691406 -7.945312 3.421875 -7.84375 C 3.148438 -7.75 2.914062 -7.640625 2.71875 -7.515625 C 2.53125 -7.390625 2.363281 -7.273438 2.21875 -7.171875 C 2.082031 -7.078125 1.941406 -7.03125 1.796875 -7.03125 C 1.691406 -7.03125 1.597656 -7.054688 1.515625 -7.109375 C 1.441406 -7.171875 1.378906 -7.242188 1.328125 -7.328125 Z M 1.03125 -7.84375 "/></g></g></g><g fill="#929876" fill-opacity="1"><g transform="translate(155.989698, 260.852328)"><g/></g></g><g fill="#929876" fill-opacity="1"><g transform="translate(160.603681, 260.852328)"><g><path d="M 9.625 -1.421875 L 9.609375 0 L 1.65625 0 L 1.65625 -12.921875 L 9.609375 -12.921875 L 9.609375 -11.5 L 3.40625 -11.5 L 3.40625 -7.203125 L 8.421875 -7.203125 L 8.421875 -5.828125 L 3.40625 -5.828125 L 3.40625 -1.421875 Z M 9.625 -1.421875 "/></g></g></g><g fill="#929876" fill-opacity="1"><g transform="translate(171.012173, 260.852328)"><g><path d="M 2.9375 -13.28125 L 2.9375 0 L 1.328125 0 L 1.328125 -13.28125 Z M 2.9375 -13.28125 "/></g></g></g><g fill="#929876" fill-opacity="1"><g transform="translate(175.26569, 260.852328)"><g><path d="M 2.96875 -9.125 L 2.96875 0 L 1.359375 0 L 1.359375 -9.125 Z M 3.3125 -12 C 3.3125 -11.84375 3.28125 -11.695312 3.21875 -11.5625 C 3.15625 -11.425781 3.066406 -11.304688 2.953125 -11.203125 C 2.847656 -11.097656 2.722656 -11.015625 2.578125 -10.953125 C 2.441406 -10.890625 2.296875 -10.859375 2.140625 -10.859375 C 1.984375 -10.859375 1.835938 -10.890625 1.703125 -10.953125 C 1.566406 -11.015625 1.445312 -11.097656 1.34375 -11.203125 C 1.25 -11.304688 1.171875 -11.425781 1.109375 -11.5625 C 1.046875 -11.695312 1.015625 -11.84375 1.015625 -12 C 1.015625 -12.15625 1.046875 -12.300781 1.109375 -12.4375 C 1.171875 -12.582031 1.25 -12.707031 1.34375 -12.8125 C 1.445312 -12.914062 1.566406 -13 1.703125 -13.0625 C 1.835938 -13.125 1.984375 -13.15625 2.140625 -13.15625 C 2.296875 -13.15625 2.441406 -13.125 2.578125 -13.0625 C 2.722656 -13 2.847656 -12.914062 2.953125 -12.8125 C 3.066406 -12.707031 3.15625 -12.582031 3.21875 -12.4375 C 3.28125 -12.300781 3.3125 -12.15625 3.3125 -12 Z M 3.3125 -12 "/></g></g></g><g fill="#929876" fill-opacity="1"><g transform="translate(179.591305, 260.852328)"><g><path d="M 6.59375 -7.625 C 6.519531 -7.488281 6.40625 -7.421875 6.25 -7.421875 C 6.164062 -7.421875 6.066406 -7.453125 5.953125 -7.515625 C 5.835938 -7.585938 5.695312 -7.664062 5.53125 -7.75 C 5.363281 -7.832031 5.164062 -7.90625 4.9375 -7.96875 C 4.707031 -8.039062 4.4375 -8.078125 4.125 -8.078125 C 3.851562 -8.078125 3.609375 -8.039062 3.390625 -7.96875 C 3.179688 -7.90625 3 -7.8125 2.84375 -7.6875 C 2.6875 -7.570312 2.566406 -7.429688 2.484375 -7.265625 C 2.410156 -7.109375 2.375 -6.9375 2.375 -6.75 C 2.375 -6.519531 2.441406 -6.328125 2.578125 -6.171875 C 2.710938 -6.015625 2.890625 -5.878906 3.109375 -5.765625 C 3.328125 -5.648438 3.578125 -5.546875 3.859375 -5.453125 C 4.148438 -5.367188 4.441406 -5.273438 4.734375 -5.171875 C 5.035156 -5.078125 5.328125 -4.96875 5.609375 -4.84375 C 5.890625 -4.726562 6.140625 -4.578125 6.359375 -4.390625 C 6.585938 -4.210938 6.769531 -3.992188 6.90625 -3.734375 C 7.039062 -3.472656 7.109375 -3.160156 7.109375 -2.796875 C 7.109375 -2.367188 7.03125 -1.976562 6.875 -1.625 C 6.726562 -1.269531 6.503906 -0.960938 6.203125 -0.703125 C 5.910156 -0.441406 5.550781 -0.234375 5.125 -0.078125 C 4.695312 0.0664062 4.207031 0.140625 3.65625 0.140625 C 3.019531 0.140625 2.441406 0.0351562 1.921875 -0.171875 C 1.398438 -0.378906 0.960938 -0.644531 0.609375 -0.96875 L 0.984375 -1.578125 C 1.035156 -1.648438 1.09375 -1.707031 1.15625 -1.75 C 1.21875 -1.800781 1.300781 -1.828125 1.40625 -1.828125 C 1.507812 -1.828125 1.617188 -1.78125 1.734375 -1.6875 C 1.859375 -1.601562 2.003906 -1.507812 2.171875 -1.40625 C 2.347656 -1.3125 2.5625 -1.222656 2.8125 -1.140625 C 3.0625 -1.054688 3.367188 -1.015625 3.734375 -1.015625 C 4.046875 -1.015625 4.316406 -1.050781 4.546875 -1.125 C 4.785156 -1.207031 4.984375 -1.316406 5.140625 -1.453125 C 5.296875 -1.597656 5.410156 -1.757812 5.484375 -1.9375 C 5.554688 -2.113281 5.59375 -2.304688 5.59375 -2.515625 C 5.59375 -2.765625 5.523438 -2.972656 5.390625 -3.140625 C 5.253906 -3.304688 5.078125 -3.445312 4.859375 -3.5625 C 4.640625 -3.675781 4.382812 -3.773438 4.09375 -3.859375 C 3.8125 -3.953125 3.519531 -4.046875 3.21875 -4.140625 C 2.925781 -4.242188 2.632812 -4.351562 2.34375 -4.46875 C 2.0625 -4.59375 1.804688 -4.75 1.578125 -4.9375 C 1.359375 -5.125 1.179688 -5.351562 1.046875 -5.625 C 0.910156 -5.90625 0.84375 -6.238281 0.84375 -6.625 C 0.84375 -6.976562 0.914062 -7.3125 1.0625 -7.625 C 1.207031 -7.945312 1.414062 -8.226562 1.6875 -8.46875 C 1.96875 -8.71875 2.304688 -8.914062 2.703125 -9.0625 C 3.109375 -9.207031 3.570312 -9.28125 4.09375 -9.28125 C 4.695312 -9.28125 5.234375 -9.179688 5.703125 -8.984375 C 6.179688 -8.796875 6.597656 -8.539062 6.953125 -8.21875 Z M 6.59375 -7.625 "/></g></g></g><g fill="#929876" fill-opacity="1"><g transform="translate(187.395419, 260.852328)"><g><path d="M 6.21875 -4.109375 C 5.476562 -4.085938 4.847656 -4.03125 4.328125 -3.9375 C 3.804688 -3.84375 3.378906 -3.71875 3.046875 -3.5625 C 2.722656 -3.414062 2.488281 -3.238281 2.34375 -3.03125 C 2.195312 -2.832031 2.125 -2.609375 2.125 -2.359375 C 2.125 -2.117188 2.160156 -1.910156 2.234375 -1.734375 C 2.316406 -1.554688 2.425781 -1.410156 2.5625 -1.296875 C 2.695312 -1.191406 2.851562 -1.113281 3.03125 -1.0625 C 3.21875 -1.007812 3.421875 -0.984375 3.640625 -0.984375 C 3.921875 -0.984375 4.175781 -1.007812 4.40625 -1.0625 C 4.644531 -1.125 4.863281 -1.207031 5.0625 -1.3125 C 5.269531 -1.425781 5.46875 -1.554688 5.65625 -1.703125 C 5.851562 -1.847656 6.039062 -2.019531 6.21875 -2.21875 Z M 1.03125 -7.84375 C 1.539062 -8.332031 2.085938 -8.695312 2.671875 -8.9375 C 3.253906 -9.175781 3.898438 -9.296875 4.609375 -9.296875 C 5.117188 -9.296875 5.570312 -9.210938 5.96875 -9.046875 C 6.363281 -8.878906 6.695312 -8.644531 6.96875 -8.34375 C 7.238281 -8.039062 7.441406 -7.675781 7.578125 -7.25 C 7.722656 -6.820312 7.796875 -6.351562 7.796875 -5.84375 L 7.796875 0 L 7.078125 0 C 6.921875 0 6.800781 -0.0234375 6.71875 -0.078125 C 6.632812 -0.128906 6.566406 -0.226562 6.515625 -0.375 L 6.34375 -1.25 C 6.101562 -1.019531 5.867188 -0.816406 5.640625 -0.640625 C 5.410156 -0.472656 5.164062 -0.332031 4.90625 -0.21875 C 4.65625 -0.101562 4.382812 -0.015625 4.09375 0.046875 C 3.8125 0.109375 3.5 0.140625 3.15625 0.140625 C 2.800781 0.140625 2.46875 0.09375 2.15625 0 C 1.84375 -0.101562 1.566406 -0.253906 1.328125 -0.453125 C 1.097656 -0.648438 0.914062 -0.898438 0.78125 -1.203125 C 0.65625 -1.503906 0.59375 -1.863281 0.59375 -2.28125 C 0.59375 -2.644531 0.691406 -2.992188 0.890625 -3.328125 C 1.085938 -3.660156 1.40625 -3.953125 1.84375 -4.203125 C 2.289062 -4.460938 2.867188 -4.675781 3.578125 -4.84375 C 4.296875 -5.007812 5.175781 -5.101562 6.21875 -5.125 L 6.21875 -5.84375 C 6.21875 -6.550781 6.0625 -7.085938 5.75 -7.453125 C 5.445312 -7.816406 5.003906 -8 4.421875 -8 C 4.023438 -8 3.691406 -7.945312 3.421875 -7.84375 C 3.148438 -7.75 2.914062 -7.640625 2.71875 -7.515625 C 2.53125 -7.390625 2.363281 -7.273438 2.21875 -7.171875 C 2.082031 -7.078125 1.941406 -7.03125 1.796875 -7.03125 C 1.691406 -7.03125 1.597656 -7.054688 1.515625 -7.109375 C 1.441406 -7.171875 1.378906 -7.242188 1.328125 -7.328125 Z M 1.03125 -7.84375 "/></g></g></g><g fill="#929876" fill-opacity="1"><g transform="translate(196.35303, 260.852328)"><g><path d="M 2.890625 -2.203125 C 3.179688 -1.804688 3.5 -1.523438 3.84375 -1.359375 C 4.195312 -1.203125 4.585938 -1.125 5.015625 -1.125 C 5.867188 -1.125 6.523438 -1.425781 6.984375 -2.03125 C 7.441406 -2.632812 7.671875 -3.535156 7.671875 -4.734375 C 7.671875 -5.859375 7.46875 -6.679688 7.0625 -7.203125 C 6.65625 -7.734375 6.078125 -8 5.328125 -8 C 4.804688 -8 4.347656 -7.878906 3.953125 -7.640625 C 3.566406 -7.398438 3.210938 -7.0625 2.890625 -6.625 Z M 2.890625 -7.8125 C 3.273438 -8.257812 3.707031 -8.613281 4.1875 -8.875 C 4.664062 -9.144531 5.222656 -9.28125 5.859375 -9.28125 C 6.390625 -9.28125 6.867188 -9.175781 7.296875 -8.96875 C 7.734375 -8.757812 8.101562 -8.460938 8.40625 -8.078125 C 8.707031 -7.691406 8.9375 -7.222656 9.09375 -6.671875 C 9.25 -6.117188 9.328125 -5.5 9.328125 -4.8125 C 9.328125 -4.070312 9.238281 -3.394531 9.0625 -2.78125 C 8.882812 -2.175781 8.625 -1.660156 8.28125 -1.234375 C 7.9375 -0.804688 7.519531 -0.472656 7.03125 -0.234375 C 6.550781 0.00390625 6.007812 0.125 5.40625 0.125 C 4.800781 0.125 4.289062 0.015625 3.875 -0.203125 C 3.46875 -0.429688 3.109375 -0.753906 2.796875 -1.171875 L 2.71875 -0.34375 C 2.675781 -0.113281 2.539062 0 2.3125 0 L 1.265625 0 L 1.265625 -13.28125 L 2.890625 -13.28125 Z M 2.890625 -7.8125 "/></g></g></g><g fill="#929876" fill-opacity="1"><g transform="translate(206.446123, 260.852328)"><g><path d="M 7.390625 -5.5625 C 7.390625 -5.9375 7.332031 -6.273438 7.21875 -6.578125 C 7.113281 -6.890625 6.960938 -7.15625 6.765625 -7.375 C 6.566406 -7.601562 6.320312 -7.78125 6.03125 -7.90625 C 5.738281 -8.03125 5.410156 -8.09375 5.046875 -8.09375 C 4.273438 -8.09375 3.664062 -7.867188 3.21875 -7.421875 C 2.769531 -6.972656 2.492188 -6.351562 2.390625 -5.5625 Z M 8.6875 -1.28125 C 8.488281 -1.039062 8.25 -0.832031 7.96875 -0.65625 C 7.695312 -0.476562 7.398438 -0.332031 7.078125 -0.21875 C 6.765625 -0.101562 6.4375 -0.0195312 6.09375 0.03125 C 5.757812 0.09375 5.429688 0.125 5.109375 0.125 C 4.472656 0.125 3.890625 0.0195312 3.359375 -0.1875 C 2.828125 -0.40625 2.363281 -0.71875 1.96875 -1.125 C 1.582031 -1.539062 1.28125 -2.050781 1.0625 -2.65625 C 0.851562 -3.257812 0.75 -3.957031 0.75 -4.75 C 0.75 -5.382812 0.84375 -5.976562 1.03125 -6.53125 C 1.226562 -7.082031 1.507812 -7.5625 1.875 -7.96875 C 2.25 -8.375 2.695312 -8.691406 3.21875 -8.921875 C 3.75 -9.160156 4.347656 -9.28125 5.015625 -9.28125 C 5.554688 -9.28125 6.0625 -9.1875 6.53125 -9 C 7 -8.820312 7.398438 -8.554688 7.734375 -8.203125 C 8.078125 -7.859375 8.34375 -7.429688 8.53125 -6.921875 C 8.726562 -6.421875 8.828125 -5.84375 8.828125 -5.1875 C 8.828125 -4.9375 8.796875 -4.769531 8.734375 -4.6875 C 8.679688 -4.601562 8.582031 -4.5625 8.4375 -4.5625 L 2.328125 -4.5625 C 2.347656 -3.988281 2.425781 -3.488281 2.5625 -3.0625 C 2.707031 -2.632812 2.90625 -2.273438 3.15625 -1.984375 C 3.414062 -1.703125 3.71875 -1.488281 4.0625 -1.34375 C 4.414062 -1.207031 4.804688 -1.140625 5.234375 -1.140625 C 5.640625 -1.140625 5.988281 -1.1875 6.28125 -1.28125 C 6.570312 -1.375 6.820312 -1.472656 7.03125 -1.578125 C 7.238281 -1.679688 7.410156 -1.78125 7.546875 -1.875 C 7.691406 -1.96875 7.816406 -2.015625 7.921875 -2.015625 C 8.054688 -2.015625 8.160156 -1.960938 8.234375 -1.859375 Z M 8.6875 -1.28125 "/></g></g></g><g fill="#929876" fill-opacity="1"><g transform="translate(215.962468, 260.852328)"><g><path d="M 4.078125 0.140625 C 3.359375 0.140625 2.800781 -0.0546875 2.40625 -0.453125 C 2.019531 -0.859375 1.828125 -1.441406 1.828125 -2.203125 L 1.828125 -7.796875 L 0.734375 -7.796875 C 0.640625 -7.796875 0.554688 -7.820312 0.484375 -7.875 C 0.421875 -7.925781 0.390625 -8.015625 0.390625 -8.140625 L 0.390625 -8.78125 L 1.890625 -8.96875 L 2.25 -11.796875 C 2.269531 -11.878906 2.3125 -11.945312 2.375 -12 C 2.4375 -12.0625 2.519531 -12.09375 2.625 -12.09375 L 3.4375 -12.09375 L 3.4375 -8.953125 L 6.078125 -8.953125 L 6.078125 -7.796875 L 3.4375 -7.796875 L 3.4375 -2.3125 C 3.4375 -1.925781 3.53125 -1.640625 3.71875 -1.453125 C 3.90625 -1.265625 4.144531 -1.171875 4.4375 -1.171875 C 4.601562 -1.171875 4.75 -1.191406 4.875 -1.234375 C 5 -1.285156 5.101562 -1.335938 5.1875 -1.390625 C 5.28125 -1.441406 5.359375 -1.488281 5.421875 -1.53125 C 5.484375 -1.582031 5.539062 -1.609375 5.59375 -1.609375 C 5.675781 -1.609375 5.75 -1.554688 5.8125 -1.453125 L 6.28125 -0.6875 C 6.007812 -0.425781 5.675781 -0.222656 5.28125 -0.078125 C 4.894531 0.0664062 4.492188 0.140625 4.078125 0.140625 Z M 4.078125 0.140625 "/></g></g></g><g fill="#929876" fill-opacity="1"><g transform="translate(222.423848, 260.852328)"><g><path d="M 2.890625 -7.921875 C 3.273438 -8.328125 3.703125 -8.65625 4.171875 -8.90625 C 4.648438 -9.15625 5.203125 -9.28125 5.828125 -9.28125 C 6.328125 -9.28125 6.765625 -9.195312 7.140625 -9.03125 C 7.523438 -8.863281 7.84375 -8.628906 8.09375 -8.328125 C 8.351562 -8.023438 8.546875 -7.660156 8.671875 -7.234375 C 8.804688 -6.804688 8.875 -6.332031 8.875 -5.8125 L 8.875 0 L 7.265625 0 L 7.265625 -5.8125 C 7.265625 -6.507812 7.101562 -7.046875 6.78125 -7.421875 C 6.46875 -7.804688 5.992188 -8 5.359375 -8 C 4.878906 -8 4.429688 -7.882812 4.015625 -7.65625 C 3.609375 -7.425781 3.234375 -7.113281 2.890625 -6.71875 L 2.890625 0 L 1.265625 0 L 1.265625 -13.28125 L 2.890625 -13.28125 Z M 2.890625 -7.921875 "/></g></g></g><g fill="#929876" fill-opacity="1"><g transform="translate(232.480892, 260.852328)"><g/></g></g><g fill="#929876" fill-opacity="1"><g transform="translate(237.094875, 260.852328)"><g><path d="M 3.390625 -7.25 L 4.046875 -7.25 C 4.273438 -7.25 4.457031 -7.273438 4.59375 -7.328125 C 4.738281 -7.390625 4.867188 -7.492188 4.984375 -7.640625 L 9.28125 -12.5 C 9.394531 -12.65625 9.519531 -12.765625 9.65625 -12.828125 C 9.789062 -12.890625 9.953125 -12.921875 10.140625 -12.921875 L 11.625 -12.921875 L 6.703125 -7.359375 C 6.578125 -7.210938 6.457031 -7.09375 6.34375 -7 C 6.238281 -6.90625 6.125 -6.828125 6 -6.765625 C 6.15625 -6.710938 6.300781 -6.632812 6.4375 -6.53125 C 6.570312 -6.425781 6.703125 -6.289062 6.828125 -6.125 L 11.96875 0 L 10.453125 0 C 10.335938 0 10.238281 -0.00390625 10.15625 -0.015625 C 10.070312 -0.0351562 10 -0.0625 9.9375 -0.09375 C 9.882812 -0.125 9.832031 -0.160156 9.78125 -0.203125 C 9.738281 -0.253906 9.695312 -0.3125 9.65625 -0.375 L 5.203125 -5.5 C 5.078125 -5.644531 4.945312 -5.75 4.8125 -5.8125 C 4.675781 -5.882812 4.46875 -5.921875 4.1875 -5.921875 L 3.390625 -5.921875 L 3.390625 0 L 1.65625 0 L 1.65625 -12.921875 L 3.390625 -12.921875 Z M 3.390625 -7.25 "/></g></g></g><g fill="#929876" fill-opacity="1"><g transform="translate(249.035354, 260.852328)"><g><path d="M 2.78125 -7.8125 C 2.976562 -8.03125 3.1875 -8.226562 3.40625 -8.40625 C 3.632812 -8.59375 3.875 -8.75 4.125 -8.875 C 4.375 -9 4.640625 -9.097656 4.921875 -9.171875 C 5.203125 -9.242188 5.503906 -9.28125 5.828125 -9.28125 C 6.328125 -9.28125 6.765625 -9.195312 7.140625 -9.03125 C 7.523438 -8.863281 7.84375 -8.628906 8.09375 -8.328125 C 8.351562 -8.023438 8.546875 -7.660156 8.671875 -7.234375 C 8.804688 -6.804688 8.875 -6.332031 8.875 -5.8125 L 8.875 0 L 7.265625 0 L 7.265625 -5.8125 C 7.265625 -6.507812 7.101562 -7.046875 6.78125 -7.421875 C 6.46875 -7.804688 5.992188 -8 5.359375 -8 C 4.878906 -8 4.429688 -7.882812 4.015625 -7.65625 C 3.609375 -7.425781 3.234375 -7.113281 2.890625 -6.71875 L 2.890625 0 L 1.265625 0 L 1.265625 -9.125 L 2.234375 -9.125 C 2.460938 -9.125 2.601562 -9.015625 2.65625 -8.796875 Z M 2.78125 -7.8125 "/></g></g></g><g fill="#929876" fill-opacity="1"><g transform="translate(259.092398, 260.852328)"><g><path d="M 2.96875 -9.125 L 2.96875 0 L 1.359375 0 L 1.359375 -9.125 Z M 3.3125 -12 C 3.3125 -11.84375 3.28125 -11.695312 3.21875 -11.5625 C 3.15625 -11.425781 3.066406 -11.304688 2.953125 -11.203125 C 2.847656 -11.097656 2.722656 -11.015625 2.578125 -10.953125 C 2.441406 -10.890625 2.296875 -10.859375 2.140625 -10.859375 C 1.984375 -10.859375 1.835938 -10.890625 1.703125 -10.953125 C 1.566406 -11.015625 1.445312 -11.097656 1.34375 -11.203125 C 1.25 -11.304688 1.171875 -11.425781 1.109375 -11.5625 C 1.046875 -11.695312 1.015625 -11.84375 1.015625 -12 C 1.015625 -12.15625 1.046875 -12.300781 1.109375 -12.4375 C 1.171875 -12.582031 1.25 -12.707031 1.34375 -12.8125 C 1.445312 -12.914062 1.566406 -13 1.703125 -13.0625 C 1.835938 -13.125 1.984375 -13.15625 2.140625 -13.15625 C 2.296875 -13.15625 2.441406 -13.125 2.578125 -13.0625 C 2.722656 -13 2.847656 -12.914062 2.953125 -12.8125 C 3.066406 -12.707031 3.15625 -12.582031 3.21875 -12.4375 C 3.28125 -12.300781 3.3125 -12.15625 3.3125 -12 Z M 3.3125 -12 "/></g></g></g><g fill="#929876" fill-opacity="1"><g transform="translate(263.418013, 260.852328)"><g><path d="M 4.078125 0.140625 C 3.359375 0.140625 2.800781 -0.0546875 2.40625 -0.453125 C 2.019531 -0.859375 1.828125 -1.441406 1.828125 -2.203125 L 1.828125 -7.796875 L 0.734375 -7.796875 C 0.640625 -7.796875 0.554688 -7.820312 0.484375 -7.875 C 0.421875 -7.925781 0.390625 -8.015625 0.390625 -8.140625 L 0.390625 -8.78125 L 1.890625 -8.96875 L 2.25 -11.796875 C 2.269531 -11.878906 2.3125 -11.945312 2.375 -12 C 2.4375 -12.0625 2.519531 -12.09375 2.625 -12.09375 L 3.4375 -12.09375 L 3.4375 -8.953125 L 6.078125 -8.953125 L 6.078125 -7.796875 L 3.4375 -7.796875 L 3.4375 -2.3125 C 3.4375 -1.925781 3.53125 -1.640625 3.71875 -1.453125 C 3.90625 -1.265625 4.144531 -1.171875 4.4375 -1.171875 C 4.601562 -1.171875 4.75 -1.191406 4.875 -1.234375 C 5 -1.285156 5.101562 -1.335938 5.1875 -1.390625 C 5.28125 -1.441406 5.359375 -1.488281 5.421875 -1.53125 C 5.484375 -1.582031 5.539062 -1.609375 5.59375 -1.609375 C 5.675781 -1.609375 5.75 -1.554688 5.8125 -1.453125 L 6.28125 -0.6875 C 6.007812 -0.425781 5.675781 -0.222656 5.28125 -0.078125 C 4.894531 0.0664062 4.492188 0.140625 4.078125 0.140625 Z M 4.078125 0.140625 "/></g></g></g></svg>