<svg xmlns="http://www.w3.org/2000/svg" xmlns:xlink="http://www.w3.org/1999/xlink" width="500" zoomAndPan="magnify" viewBox="0 0 375 225" height="300" preserveAspectRatio="xMidYMid meet" version="1.0"><defs><g/></defs><g fill="#6d7856" fill-opacity="1"><g transform="translate(10.493989, 187.46214)"><g><path d="M 14.972656 -1.230469 C 27.074219 -1.230469 39.585938 -13.949219 47.789062 -22.765625 C 51.890625 -27.484375 55.996094 -32.203125 59.890625 -37.125 C 63.789062 -41.84375 67.6875 -46.765625 71.582031 -51.6875 C 74.25 -55.378906 77.121094 -59.070312 79.785156 -62.96875 C 82.453125 -66.660156 85.324219 -70.351562 88.402344 -73.839844 C 90.246094 -76.09375 92.09375 -77.941406 93.734375 -80.195312 C 94.554688 -81.019531 94.351562 -82.453125 93.324219 -83.070312 C 93.117188 -83.273438 92.914062 -83.273438 92.707031 -83.273438 C 92.296875 -83.273438 91.886719 -83.070312 91.273438 -82.453125 L 89.015625 -79.992188 C 83.480469 -73.632812 78.554688 -67.070312 73.429688 -60.300781 C 65.429688 -49.636719 57.019531 -39.175781 48.199219 -28.921875 C 40.613281 -19.28125 25.023438 -4.101562 12.304688 -4.101562 C 9.640625 -4.101562 7.589844 -5.332031 6.152344 -8 C 5.949219 -8.613281 5.742188 -9.023438 5.539062 -9.640625 C 5.332031 -10.253906 4.921875 -10.871094 4.71875 -11.484375 C 3.28125 -16.410156 2.667969 -21.535156 3.28125 -26.664062 C 5.949219 -57.636719 23.792969 -90.246094 46.558594 -110.964844 C 49.636719 -113.628906 52.710938 -115.269531 55.996094 -116.296875 C 59.070312 -117.117188 61.53125 -118.140625 64.199219 -119.167969 C 64.609375 -119.371094 65.019531 -119.78125 65.632812 -119.988281 C 66.042969 -120.191406 66.453125 -120.398438 66.660156 -120.601562 C 67.480469 -121.015625 67.6875 -121.835938 67.480469 -123.066406 C 67.277344 -124.296875 66.660156 -124.910156 65.632812 -124.910156 C 63.789062 -124.910156 62.148438 -124.707031 60.507812 -124.089844 C 57.839844 -123.066406 55.175781 -121.628906 52.300781 -119.78125 C 50.25 -118.347656 48.199219 -117.527344 46.355469 -117.117188 C 39.175781 -114.859375 32.613281 -112.808594 25.023438 -112.808594 C 23.175781 -112.808594 21.742188 -113.21875 20.511719 -113.835938 C 19.894531 -116.296875 21.535156 -117.9375 22.972656 -119.78125 C 31.175781 -131.882812 51.277344 -145.625 66.042969 -147.675781 L 66.863281 -147.675781 C 67.890625 -147.675781 68.710938 -147.472656 69.121094 -146.855469 C 69.53125 -146.242188 69.53125 -145.832031 69.121094 -145.421875 C 68.507812 -145.011719 68.097656 -144.601562 67.890625 -144.191406 C 67.6875 -143.78125 67.277344 -143.371094 66.660156 -142.753906 C 66.660156 -142.753906 66.660156 -142.550781 66.453125 -142.34375 L 66.453125 -141.933594 C 66.660156 -141.730469 67.070312 -141.730469 67.277344 -141.523438 C 67.480469 -141.320312 67.480469 -141.320312 67.6875 -141.320312 C 70.148438 -141.933594 71.789062 -143.984375 71.582031 -146.242188 C 71.378906 -148.703125 69.941406 -150.140625 67.6875 -150.550781 C 66.660156 -150.753906 65.839844 -150.960938 65.222656 -150.960938 C 64.199219 -150.960938 62.761719 -150.753906 61.328125 -150.34375 C 59.6875 -149.730469 58.457031 -149.320312 57.429688 -149.113281 C 42.664062 -144.394531 31.175781 -135.167969 21.332031 -123.476562 C 20.304688 -122.039062 19.28125 -120.601562 18.253906 -118.757812 C 16 -114.65625 18.253906 -110.554688 22.972656 -109.734375 C 23.585938 -109.527344 24.40625 -109.527344 25.433594 -109.527344 L 28.714844 -109.527344 C 30.355469 -109.527344 31.996094 -109.734375 33.636719 -110.144531 C 35.074219 -110.347656 36.714844 -110.757812 38.148438 -110.964844 C 38.765625 -111.167969 39.175781 -111.375 39.585938 -111.375 C 39.789062 -111.375 39.996094 -111.167969 40.199219 -110.757812 C 40.816406 -110.144531 39.996094 -109.734375 39.378906 -109.117188 C 18.871094 -88.605469 0.617188 -53.945312 0 -24.203125 C 0 -13.742188 3.488281 -1.230469 14.972656 -1.230469 Z M 14.972656 -1.230469 "/></g></g></g><g fill="#6d7856" fill-opacity="1"><g transform="translate(99.919009, 187.46214)"><g><path d="M 63.992188 -27.28125 C 65.429688 -27.28125 66.453125 -27.691406 67.277344 -28.304688 C 68.507812 -29.125 69.53125 -30.152344 70.351562 -31.382812 C 76.09375 -38.558594 79.992188 -47.996094 83.480469 -56.40625 C 84.710938 -59.480469 85.941406 -62.558594 87.375 -65.632812 C 88.605469 -68.507812 89.835938 -71.582031 91.066406 -74.660156 C 91.886719 -76.503906 92.503906 -78.554688 93.117188 -80.402344 C 93.734375 -81.429688 92.503906 -82.863281 91.476562 -82.863281 C 90.863281 -83.070312 90.246094 -82.660156 89.632812 -81.632812 C 89.425781 -81.019531 89.015625 -80.402344 88.8125 -79.785156 C 88.605469 -79.171875 88.195312 -78.351562 87.992188 -77.734375 C 86.144531 -73.429688 84.300781 -69.121094 82.660156 -64.8125 C 80.8125 -60.507812 79.171875 -56.199219 77.324219 -51.890625 C 74.25 -45.535156 71.582031 -39.789062 67.6875 -34.046875 C 67.070312 -33.433594 66.660156 -32.613281 66.25 -31.792969 C 65.632812 -30.765625 65.019531 -30.355469 63.992188 -30.5625 C 62.96875 -30.765625 62.351562 -31.585938 62.148438 -32.613281 C 61.941406 -33.636719 61.738281 -34.457031 61.53125 -35.484375 C 59.277344 -43.6875 59.070312 -51.890625 59.277344 -60.300781 C 59.480469 -76.914062 61.738281 -93.117188 65.019531 -109.527344 C 65.632812 -113.015625 66.453125 -116.5 67.277344 -119.988281 C 68.097656 -123.269531 68.917969 -126.757812 69.53125 -130.242188 C 69.738281 -130.859375 69.941406 -131.679688 69.941406 -132.5 C 69.941406 -133.320312 69.941406 -134.140625 70.148438 -134.960938 C 70.148438 -136.191406 69.53125 -137.421875 68.507812 -138.859375 C 68.097656 -139.269531 67.6875 -139.472656 67.070312 -139.472656 C 66.863281 -139.472656 66.453125 -139.269531 65.839844 -139.0625 C 60.300781 -135.167969 51.480469 -113.425781 49.226562 -106.449219 C 44.304688 -91.683594 41.023438 -76.710938 37.738281 -61.738281 L 34.664062 -47.585938 C 34.457031 -46.558594 34.253906 -45.535156 32.816406 -44.917969 C 32.613281 -46.148438 32.40625 -47.378906 32.203125 -48.609375 C 31.996094 -49.636719 31.996094 -50.867188 31.792969 -51.890625 C 31.175781 -60.710938 31.996094 -69.53125 33.023438 -78.351562 C 34.457031 -90.863281 37.125 -103.375 40.199219 -115.679688 C 42.046875 -123.269531 43.894531 -130.652344 45.535156 -138.652344 C 46.355469 -141.933594 47.175781 -145.214844 47.175781 -149.113281 C 47.175781 -150.550781 47.175781 -151.371094 46.355469 -152.804688 C 45.738281 -153.832031 44.917969 -154.242188 44.304688 -154.242188 C 43.6875 -154.242188 43.074219 -153.832031 42.457031 -153.214844 C 41.433594 -151.78125 40.613281 -150.753906 39.789062 -149.320312 C 25.84375 -125.320312 17.640625 -90.65625 12.714844 -63.378906 C 12.101562 -59.890625 11.484375 -56.609375 10.871094 -53.328125 C 10.253906 -50.046875 9.640625 -46.765625 8.820312 -43.484375 C 8.613281 -42.457031 8.410156 -41.433594 6.972656 -40.816406 C 6.152344 -42.664062 5.742188 -44.304688 5.539062 -46.148438 C 5.332031 -47.996094 4.921875 -49.839844 4.71875 -51.6875 C 3.691406 -68.710938 4.921875 -86.144531 8.203125 -103.988281 C 10.050781 -113.628906 12.511719 -123.066406 15.589844 -132.703125 L 19.894531 -146.652344 C 20.511719 -148.089844 20.921875 -148.910156 20.101562 -150.34375 C 19.894531 -150.550781 19.484375 -150.960938 18.871094 -151.164062 C 18.460938 -151.164062 18.253906 -150.960938 18.253906 -150.550781 L 17.023438 -148.089844 C 9.84375 -128.191406 3.898438 -108.09375 1.640625 -86.964844 C 0.617188 -76.503906 -0.410156 -65.839844 0.207031 -55.378906 C 0.207031 -51.277344 1.4375 -41.023438 3.898438 -37.535156 C 4.921875 -36.304688 6.152344 -35.6875 7.589844 -35.6875 C 9.433594 -35.6875 10.664062 -36.507812 11.484375 -38.148438 C 12.304688 -39.996094 12.921875 -41.84375 13.332031 -44.097656 C 13.949219 -47.585938 14.769531 -50.867188 15.382812 -54.355469 C 16 -57.636719 16.613281 -60.917969 17.230469 -64.402344 C 20.921875 -87.785156 28.921875 -121.425781 40.40625 -142.550781 C 41.023438 -143.984375 41.433594 -145.625 43.277344 -146.445312 C 43.484375 -145.011719 43.484375 -143.78125 43.074219 -142.753906 C 42.664062 -141.523438 42.253906 -140.292969 42.046875 -139.269531 C 40.816406 -134.140625 39.585938 -128.808594 38.355469 -123.679688 C 36.917969 -118.550781 35.6875 -113.21875 34.457031 -108.09375 C 30.5625 -92.707031 28.304688 -77.121094 27.691406 -61.328125 C 27.484375 -56.816406 27.691406 -52.097656 28.304688 -47.378906 C 28.304688 -43.277344 29.742188 -39.378906 34.457031 -39.378906 C 35.6875 -39.585938 36.507812 -40.40625 37.125 -41.84375 C 37.535156 -43.277344 37.945312 -44.507812 38.355469 -45.738281 C 38.765625 -46.96875 39.175781 -48.199219 39.378906 -49.636719 C 39.996094 -52.917969 40.816406 -56.199219 41.433594 -59.480469 C 42.046875 -62.558594 42.664062 -65.839844 43.277344 -69.121094 C 47.996094 -89.632812 52.710938 -111.375 63.171875 -129.628906 C 63.992188 -131.0625 64.609375 -132.5 66.042969 -133.320312 C 66.25 -132.703125 66.453125 -132.5 66.453125 -132.292969 C 66.453125 -131.679688 66.25 -130.652344 66.042969 -129.628906 C 62.558594 -115.886719 59.480469 -102.964844 57.636719 -89.015625 C 55.789062 -76.710938 54.558594 -64.8125 55.175781 -52.507812 C 55.378906 -45.328125 55.996094 -36.917969 59.070312 -30.355469 C 60.097656 -28.304688 61.738281 -27.28125 63.992188 -27.28125 Z M 63.992188 -27.28125 "/></g></g></g><g fill="#6d7856" fill-opacity="1"><g transform="translate(188.318515, 187.46214)"><g><path d="M 63.992188 -27.28125 C 65.429688 -27.28125 66.453125 -27.691406 67.277344 -28.304688 C 68.507812 -29.125 69.53125 -30.152344 70.351562 -31.382812 C 76.09375 -38.558594 79.992188 -47.996094 83.480469 -56.40625 C 84.710938 -59.480469 85.941406 -62.558594 87.375 -65.632812 C 88.605469 -68.507812 89.835938 -71.582031 91.066406 -74.660156 C 91.886719 -76.503906 92.503906 -78.554688 93.117188 -80.402344 C 93.734375 -81.429688 92.503906 -82.863281 91.476562 -82.863281 C 90.863281 -83.070312 90.246094 -82.660156 89.632812 -81.632812 C 89.425781 -81.019531 89.015625 -80.402344 88.8125 -79.785156 C 88.605469 -79.171875 88.195312 -78.351562 87.992188 -77.734375 C 86.144531 -73.429688 84.300781 -69.121094 82.660156 -64.8125 C 80.8125 -60.507812 79.171875 -56.199219 77.324219 -51.890625 C 74.25 -45.535156 71.582031 -39.789062 67.6875 -34.046875 C 67.070312 -33.433594 66.660156 -32.613281 66.25 -31.792969 C 65.632812 -30.765625 65.019531 -30.355469 63.992188 -30.5625 C 62.96875 -30.765625 62.351562 -31.585938 62.148438 -32.613281 C 61.941406 -33.636719 61.738281 -34.457031 61.53125 -35.484375 C 59.277344 -43.6875 59.070312 -51.890625 59.277344 -60.300781 C 59.480469 -76.914062 61.738281 -93.117188 65.019531 -109.527344 C 65.632812 -113.015625 66.453125 -116.5 67.277344 -119.988281 C 68.097656 -123.269531 68.917969 -126.757812 69.53125 -130.242188 C 69.738281 -130.859375 69.941406 -131.679688 69.941406 -132.5 C 69.941406 -133.320312 69.941406 -134.140625 70.148438 -134.960938 C 70.148438 -136.191406 69.53125 -137.421875 68.507812 -138.859375 C 68.097656 -139.269531 67.6875 -139.472656 67.070312 -139.472656 C 66.863281 -139.472656 66.453125 -139.269531 65.839844 -139.0625 C 60.300781 -135.167969 51.480469 -113.425781 49.226562 -106.449219 C 44.304688 -91.683594 41.023438 -76.710938 37.738281 -61.738281 L 34.664062 -47.585938 C 34.457031 -46.558594 34.253906 -45.535156 32.816406 -44.917969 C 32.613281 -46.148438 32.40625 -47.378906 32.203125 -48.609375 C 31.996094 -49.636719 31.996094 -50.867188 31.792969 -51.890625 C 31.175781 -60.710938 31.996094 -69.53125 33.023438 -78.351562 C 34.457031 -90.863281 37.125 -103.375 40.199219 -115.679688 C 42.046875 -123.269531 43.894531 -130.652344 45.535156 -138.652344 C 46.355469 -141.933594 47.175781 -145.214844 47.175781 -149.113281 C 47.175781 -150.550781 47.175781 -151.371094 46.355469 -152.804688 C 45.738281 -153.832031 44.917969 -154.242188 44.304688 -154.242188 C 43.6875 -154.242188 43.074219 -153.832031 42.457031 -153.214844 C 41.433594 -151.78125 40.613281 -150.753906 39.789062 -149.320312 C 25.84375 -125.320312 17.640625 -90.65625 12.714844 -63.378906 C 12.101562 -59.890625 11.484375 -56.609375 10.871094 -53.328125 C 10.253906 -50.046875 9.640625 -46.765625 8.820312 -43.484375 C 8.613281 -42.457031 8.410156 -41.433594 6.972656 -40.816406 C 6.152344 -42.664062 5.742188 -44.304688 5.539062 -46.148438 C 5.332031 -47.996094 4.921875 -49.839844 4.71875 -51.6875 C 3.691406 -68.710938 4.921875 -86.144531 8.203125 -103.988281 C 10.050781 -113.628906 12.511719 -123.066406 15.589844 -132.703125 L 19.894531 -146.652344 C 20.511719 -148.089844 20.921875 -148.910156 20.101562 -150.34375 C 19.894531 -150.550781 19.484375 -150.960938 18.871094 -151.164062 C 18.460938 -151.164062 18.253906 -150.960938 18.253906 -150.550781 L 17.023438 -148.089844 C 9.84375 -128.191406 3.898438 -108.09375 1.640625 -86.964844 C 0.617188 -76.503906 -0.410156 -65.839844 0.207031 -55.378906 C 0.207031 -51.277344 1.4375 -41.023438 3.898438 -37.535156 C 4.921875 -36.304688 6.152344 -35.6875 7.589844 -35.6875 C 9.433594 -35.6875 10.664062 -36.507812 11.484375 -38.148438 C 12.304688 -39.996094 12.921875 -41.84375 13.332031 -44.097656 C 13.949219 -47.585938 14.769531 -50.867188 15.382812 -54.355469 C 16 -57.636719 16.613281 -60.917969 17.230469 -64.402344 C 20.921875 -87.785156 28.921875 -121.425781 40.40625 -142.550781 C 41.023438 -143.984375 41.433594 -145.625 43.277344 -146.445312 C 43.484375 -145.011719 43.484375 -143.78125 43.074219 -142.753906 C 42.664062 -141.523438 42.253906 -140.292969 42.046875 -139.269531 C 40.816406 -134.140625 39.585938 -128.808594 38.355469 -123.679688 C 36.917969 -118.550781 35.6875 -113.21875 34.457031 -108.09375 C 30.5625 -92.707031 28.304688 -77.121094 27.691406 -61.328125 C 27.484375 -56.816406 27.691406 -52.097656 28.304688 -47.378906 C 28.304688 -43.277344 29.742188 -39.378906 34.457031 -39.378906 C 35.6875 -39.585938 36.507812 -40.40625 37.125 -41.84375 C 37.535156 -43.277344 37.945312 -44.507812 38.355469 -45.738281 C 38.765625 -46.96875 39.175781 -48.199219 39.378906 -49.636719 C 39.996094 -52.917969 40.816406 -56.199219 41.433594 -59.480469 C 42.046875 -62.558594 42.664062 -65.839844 43.277344 -69.121094 C 47.996094 -89.632812 52.710938 -111.375 63.171875 -129.628906 C 63.992188 -131.0625 64.609375 -132.5 66.042969 -133.320312 C 66.25 -132.703125 66.453125 -132.5 66.453125 -132.292969 C 66.453125 -131.679688 66.25 -130.652344 66.042969 -129.628906 C 62.558594 -115.886719 59.480469 -102.964844 57.636719 -89.015625 C 55.789062 -76.710938 54.558594 -64.8125 55.175781 -52.507812 C 55.378906 -45.328125 55.996094 -36.917969 59.070312 -30.355469 C 60.097656 -28.304688 61.738281 -27.28125 63.992188 -27.28125 Z M 63.992188 -27.28125 "/></g></g></g><g fill="#6d7856" fill-opacity="1"><g transform="translate(276.718033, 187.46214)"><g><path d="M 51.070312 0 C 51.6875 0 52.300781 -0.207031 52.710938 -0.410156 C 48.199219 -8.410156 45.738281 -25.226562 45.738281 -34.457031 C 45.125 -48.609375 45.535156 -62.558594 47.996094 -76.503906 C 48.609375 -79.582031 48.40625 -79.375 51.480469 -79.375 C 54.765625 -79.171875 58.046875 -79.171875 61.53125 -78.964844 C 64.8125 -78.761719 68.097656 -78.554688 71.582031 -78.351562 C 73.019531 -78.351562 74.660156 -78.351562 76.09375 -78.351562 C 77.53125 -78.144531 79.171875 -78.144531 80.605469 -78.144531 C 83.683594 -78.144531 86.351562 -78.351562 89.425781 -78.964844 C 90.042969 -79.171875 90.863281 -79.582031 91.683594 -79.785156 C 92.296875 -79.992188 92.503906 -80.402344 92.503906 -81.019531 C 92.503906 -81.429688 92.503906 -81.839844 92.296875 -82.453125 C 92.09375 -83.070312 91.683594 -83.273438 91.066406 -83.273438 L 90.453125 -83.273438 C 86.554688 -81.839844 82.453125 -81.632812 78.351562 -81.632812 C 77.734375 -81.632812 76.914062 -81.632812 76.09375 -81.632812 C 75.273438 -81.632812 74.453125 -81.632812 73.632812 -81.839844 C 70.148438 -82.042969 66.863281 -82.042969 63.378906 -82.25 C 59.890625 -82.453125 56.40625 -82.453125 52.917969 -82.660156 C 52.507812 -82.863281 51.890625 -82.863281 51.070312 -82.863281 C 49.839844 -83.070312 49.429688 -83.683594 49.636719 -84.914062 L 50.25 -89.222656 C 53.53125 -103.167969 57.019531 -116.707031 61.121094 -130.652344 C 61.328125 -131.679688 61.738281 -132.703125 61.941406 -133.730469 C 62.148438 -134.757812 62.351562 -135.78125 62.558594 -136.808594 C 62.761719 -138.242188 62.558594 -139.472656 61.738281 -140.5 C 61.53125 -141.113281 61.121094 -141.320312 60.097656 -141.320312 C 59.6875 -141.320312 59.480469 -141.320312 59.277344 -141.113281 L 57.226562 -139.269531 C 46.355469 -123.886719 36.304688 -103.167969 30.355469 -85.53125 C 29.332031 -82.863281 27.691406 -81.429688 25.023438 -81.019531 C 16 -78.761719 8.203125 -75.480469 2.257812 -68.097656 C 0.820312 -66.660156 0 -65.222656 0 -62.96875 C -0.617188 -59.480469 2.257812 -56.816406 5.539062 -56.816406 C 6.152344 -56.816406 6.769531 -56.816406 7.179688 -57.019531 C 7.382812 -57.019531 7.589844 -57.226562 7.589844 -57.839844 C 7.589844 -58.046875 7.382812 -58.457031 7.179688 -58.660156 L 4.921875 -59.277344 C 2.667969 -59.6875 2.050781 -60.917969 2.871094 -62.96875 C 6.152344 -70.351562 17.84375 -75.683594 25.433594 -77.324219 C 25.636719 -77.324219 26.046875 -77.121094 26.867188 -76.914062 L 25.636719 -72.609375 L 14.5625 -38.765625 C 13.949219 -36.714844 13.332031 -34.664062 12.714844 -32.613281 C 12.101562 -30.5625 11.28125 -28.511719 10.664062 -26.457031 C 10.460938 -25.84375 10.253906 -25.023438 10.050781 -24.40625 C 9.84375 -23.792969 9.230469 -23.175781 8.410156 -22.972656 C 8.203125 -24.816406 8.613281 -26.664062 9.640625 -28.921875 C 9.84375 -29.535156 9.640625 -29.945312 9.023438 -30.152344 C 8.820312 -30.355469 8.410156 -30.5625 8 -30.5625 C 7.179688 -30.5625 6.5625 -30.152344 6.359375 -29.125 C 5.332031 -26.046875 4.71875 -22.972656 4.921875 -20.304688 C 5.128906 -18.050781 6.152344 -17.433594 8 -16.820312 C 9.433594 -16.820312 10.664062 -17.640625 11.28125 -19.074219 C 12.714844 -21.742188 14.152344 -25.023438 15.179688 -28.921875 C 17.433594 -36.507812 19.894531 -43.894531 22.355469 -51.480469 C 24.816406 -58.867188 27.28125 -66.25 29.535156 -73.839844 L 30.765625 -77.324219 C 31.175781 -78.351562 31.792969 -78.761719 32.613281 -78.964844 C 36.507812 -79.582031 39.175781 -79.785156 43.074219 -79.785156 C 44.097656 -79.582031 44.507812 -79.171875 44.507812 -78.144531 C 44.304688 -76.710938 44.097656 -75.683594 44.097656 -74.25 C 43.894531 -72.402344 43.484375 -70.558594 43.277344 -68.917969 C 43.074219 -67.070312 42.867188 -65.222656 42.664062 -63.378906 C 41.84375 -51.070312 41.023438 -39.378906 42.457031 -27.28125 C 43.277344 -20.101562 43.894531 -13.539062 46.148438 -6.972656 C 46.765625 -5.128906 47.378906 -3.28125 48.40625 -1.640625 C 49.019531 -0.617188 50.046875 0 51.070312 0 Z M 34.867188 -82.863281 C 33.636719 -82.863281 33.023438 -83.273438 33.226562 -84.09375 C 33.433594 -84.710938 33.84375 -86.144531 34.457031 -87.992188 C 39.996094 -102.347656 46.558594 -116.089844 54.148438 -129.21875 C 54.765625 -130.242188 55.378906 -131.0625 55.996094 -132.089844 C 56.40625 -132.910156 57.226562 -133.730469 58.25 -134.34375 C 58.457031 -133.523438 58.660156 -132.910156 58.457031 -132.292969 C 58.25 -131.679688 58.046875 -131.0625 57.839844 -130.449219 C 53.53125 -115.679688 49.636719 -101.527344 46.355469 -86.761719 C 46.148438 -86.554688 46.148438 -86.351562 46.148438 -86.144531 C 46.148438 -85.941406 46.148438 -85.53125 45.945312 -85.324219 C 45.738281 -84.09375 45.125 -83.480469 43.6875 -83.480469 C 42.664062 -83.480469 41.84375 -83.480469 41.023438 -83.480469 C 39.996094 -83.480469 39.175781 -83.480469 38.355469 -83.273438 C 36.714844 -83.070312 35.6875 -82.863281 34.867188 -82.863281 Z M 34.867188 -82.863281 "/></g></g></g></svg>